<?xml version="1.0" encoding="UTF-8"?>
<svg width="20px" height="20px" viewBox="0 0 20 20" version="1.1" xmlns="http://www.w3.org/2000/svg" xmlns:xlink="http://www.w3.org/1999/xlink">
    <!-- Generator: Sketch 62 (91390) - https://sketch.com -->
    <title>icons/angle-down</title>
    <desc>Created with Sketch.</desc>
    <g id="icons/angle-down" stroke="none" stroke-width="1" fill="none" fill-rule="evenodd">
        <g id="angle-down">
            <rect id="Rectangle" x="0" y="0" width="20" height="20"></rect>
            <g transform="translate(4.000000, 6.000000)" fill="#181818" id="Path">
                <path d="M11,1.17 C10.6099625,0.782276405 9.98003745,0.782276405 9.59,1.17 L6,4.71 L2.46,1.17 C2.06996255,0.782276405 1.44003745,0.782276405 1.05,1.17 C0.860687349,1.3577666 0.754201676,1.61336246 0.754201676,1.88 C0.754201676,2.14663754 0.860687349,2.4022334 1.05,2.59 L5.29,6.83 C5.4777666,7.01931265 5.73336246,7.12579832 6,7.12579832 C6.26663754,7.12579832 6.5222334,7.01931265 6.71,6.83 L11,2.59 C11.1893127,2.4022334 11.2957983,2.14663754 11.2957983,1.88 C11.2957983,1.61336246 11.1893127,1.3577666 11,1.17 L11,1.17 Z"></path>
            </g>
        </g>
    </g>
</svg>