<?xml version="1.0" encoding="UTF-8"?>
<svg width="20px" height="20px" viewBox="0 0 20 20" version="1.1" xmlns="http://www.w3.org/2000/svg" xmlns:xlink="http://www.w3.org/1999/xlink">
    <!-- Generator: Sketch 62 (91390) - https://sketch.com -->
    <title>icons/ban</title>
    <desc>Created with Sketch.</desc>
    <g id="icons/ban" stroke="none" stroke-width="1" fill="none" fill-rule="evenodd">
        <g id="ban">
            <rect id="Rectangle" x="0" y="0" width="20" height="20"></rect>
            <g transform="translate(2.000000, 2.000000)" fill="#181818" id="Shape">
                <path d="M8,0 C3.581722,0 0,3.581722 0,8 C0,12.418278 3.581722,16 8,16 C12.418278,16 16,12.418278 16,8 C16,5.87826808 15.1571453,3.84343678 13.6568542,2.34314575 C12.1565632,0.842854723 10.1217319,0 8,0 Z M8,14.4000049 C4.4653776,14.4000049 1.5999951,11.5346224 1.5999951,8 C1.59823249,6.57867598 2.07441233,5.19803621 2.952,4.08 L11.92,13.048 C10.8019638,13.9255877 9.42132402,14.4017675 8,14.4000049 L8,14.4000049 Z M13.048,11.92 L4.08,2.952 C5.19803621,2.07441233 6.57867598,1.59823249 8,1.5999951 C11.5346224,1.5999951 14.4000049,4.4653776 14.4000049,8 C14.4017675,9.42132402 13.9255877,10.8019638 13.048,11.92 L13.048,11.92 Z"></path>
            </g>
        </g>
    </g>
</svg>