<?xml version="1.0" encoding="UTF-8"?>
<svg width="20px" height="20px" viewBox="0 0 20 20" version="1.1" xmlns="http://www.w3.org/2000/svg" xmlns:xlink="http://www.w3.org/1999/xlink">
    <!-- Generator: Sketch 62 (91390) - https://sketch.com -->
    <title>icons/check copy</title>
    <desc>Created with Sketch.</desc>
    <g id="icons/check-copy" stroke="none" stroke-width="1" fill="none" fill-rule="evenodd">
        <g id="Times-circle">
            <rect id="Rectangle" x="0" y="0" width="20" height="20"></rect>
            <g id="times-circle" transform="translate(2.000000, 2.000000)" fill="#181818">
                <path d="M10.9318995,5.06810046 C10.7835133,4.91849246 10.5815237,4.83434009 10.3708083,4.83434009 C10.1600928,4.83434009 9.95810317,4.91849246 9.80971697,5.06810046 L8,6.88572012 L6.19028303,5.06810046 C5.88040087,4.75821832 5.37798263,4.75821833 5.06810048,5.06810048 C4.75821833,5.37798263 4.75821832,5.88040087 5.06810046,6.19028303 L6.88572012,8 L5.06810046,9.80971697 C4.91849246,9.95810317 4.83434009,10.1600928 4.83434009,10.3708083 C4.83434009,10.5815237 4.91849246,10.7835133 5.06810046,10.9318995 C5.21648666,11.0815075 5.41847626,11.1656599 5.62919175,11.1656599 C5.83990724,11.1656599 6.04189683,11.0815075 6.19028303,10.9318995 L8,9.11427988 L9.80971697,10.9318995 C9.95810317,11.0815075 10.1600928,11.1656599 10.3708083,11.1656599 C10.5815237,11.1656599 10.7835133,11.0815075 10.9318995,10.9318995 C11.0815075,10.7835133 11.1656599,10.5815237 11.1656599,10.3708083 C11.1656599,10.1600928 11.0815075,9.95810317 10.9318995,9.80971697 L9.11427988,8 L10.9318995,6.19028303 C11.0815075,6.04189683 11.1656599,5.83990724 11.1656599,5.62919175 C11.1656599,5.41847626 11.0815075,5.21648666 10.9318995,5.06810046 Z M13.5872048,2.41279522 C11.60304,0.358437829 8.66479129,-0.465465557 5.90177682,0.257752983 C3.13876234,0.980971523 0.980971523,3.13876234 0.257752983,5.90177682 C-0.465465557,8.66479129 0.358437829,11.60304 2.41279522,13.5872048 C4.39695997,15.6415622 7.33520871,16.4654656 10.0982232,15.742247 C12.8612377,15.0190285 15.0190285,12.8612377 15.742247,10.0982232 C16.4654656,7.33520871 15.6415622,4.39695997 13.5872048,2.41279522 Z M12.4729249,12.4729249 C10.341476,14.6067445 6.99956642,14.9378667 4.49082599,13.2638051 C1.98208555,11.5897435 1.00516638,8.37670289 2.15746975,5.58950756 C3.30977311,2.80231224 6.27039726,1.21716052 9.22887443,1.80339736 C12.1873516,2.3896342 14.3197837,4.98400013 14.3221916,8 C14.3278504,9.67810858 13.6619656,11.288753 12.4729249,12.4729249 Z" id="Shape"></path>
            </g>
        </g>
    </g>
</svg>