<?xml version="1.0" encoding="UTF-8"?>
<svg width="20px" height="20px" viewBox="0 0 20 20" version="1.1" xmlns="http://www.w3.org/2000/svg" xmlns:xlink="http://www.w3.org/1999/xlink">
    <!-- Generator: Sketch 62 (91390) - https://sketch.com -->
    <title>icons/check</title>
    <desc>Created with Sketch.</desc>
    <g id="icons/check" stroke="none" stroke-width="1" fill="none" fill-rule="evenodd">
        <g id="Check-circle">
            <rect id="Rectangle" x="0" y="0" width="20" height="20"></rect>
            <g id="check-circle" transform="translate(2.000000, 2.000000)" fill="#181818">
                <path d="M10.176,5.432 L6.744,8.872 L5.424,7.552 C5.22848809,7.32369907 4.92150528,7.22425444 4.62926482,7.29455189 C4.33702436,7.36484934 4.10884934,7.59302436 4.03855189,7.88526482 C3.96825444,8.17750528 4.06769907,8.48448809 4.296,8.68 L6.176,10.568 C6.32697506,10.7177492 6.53135761,10.8012294 6.744,10.8000134 C6.9538719,10.7991163 7.15499149,10.7157953 7.304,10.568 L11.304,6.568 C11.4554501,6.41778672 11.5406387,6.21331003 11.5406387,6 C11.5406387,5.78668997 11.4554501,5.58221328 11.304,5.432 C10.99197,5.12182112 10.48803,5.12182112 10.176,5.432 L10.176,5.432 Z M8,0 C3.581722,0 0,3.581722 0,8 C0,12.418278 3.581722,16 8,16 C12.418278,16 16,12.418278 16,8 C16,5.87826808 15.1571453,3.84343678 13.6568542,2.34314575 C12.1565632,0.842854723 10.1217319,0 8,0 Z M8,14.4 C4.4653776,14.4 1.6,11.5346224 1.6,8 C1.6,4.4653776 4.4653776,1.6 8,1.6 C11.5346224,1.6 14.4,4.4653776 14.4,8 C14.4,9.69738553 13.7257162,11.3252506 12.5254834,12.5254834 C11.3252506,13.7257162 9.69738553,14.4 8,14.4 Z" id="Shape"></path>
            </g>
        </g>
    </g>
</svg>