<?xml version="1.0" encoding="UTF-8"?>
<svg width="20px" height="20px" viewBox="0 0 20 20" version="1.1" xmlns="http://www.w3.org/2000/svg" xmlns:xlink="http://www.w3.org/1999/xlink">
    <!-- Generator: Sketch 62 (91390) - https://sketch.com -->
    <title>icons/clock</title>
    <desc>Created with Sketch.</desc>
    <g id="icons/clock" stroke="none" stroke-width="1" fill="none" fill-rule="evenodd">
        <g id="clock">
            <rect id="Rectangle" x="0" y="0" width="20" height="20"></rect>
            <g id="clock-eight" transform="translate(2.000000, 2.000000)" fill="#181818">
                <path d="M8,0 C3.581722,0 0,3.581722 0,8 C0,12.418278 3.581722,16 8,16 C12.418278,16 16,12.418278 16,8 C16,5.87826808 15.1571453,3.84343678 13.6568542,2.34314575 C12.1565632,0.842854723 10.1217319,0 8,0 Z M8,14.4 C4.4653776,14.4 1.6,11.5346224 1.6,8 C1.6,4.4653776 4.4653776,1.6 8,1.6 C11.5346224,1.6 14.4,4.4653776 14.4,8 C14.4,9.69738553 13.7257162,11.3252506 12.5254834,12.5254834 C11.3252506,13.7257162 9.69738553,14.4 8,14.4 Z M8,3.2 C7.5581722,3.2 7.2,3.5581722 7.2,4 L7.2,7.536 L5.52,8.504 C5.20302987,8.68361449 5.04744952,9.0547048 5.14155629,9.40666409 C5.23566305,9.75862339 5.55568566,10.0025471 5.92,10.0000198 C6.06014111,10.0009679 6.19807767,9.96510436 6.32,9.896 L8.4,8.696 L8.472,8.624 L8.6,8.52 C8.63128055,8.48039659 8.65810863,8.43747165 8.68,8.392 C8.70607202,8.34905173 8.72752486,8.30346444 8.744,8.256 C8.76575994,8.20513413 8.77926307,8.15112162 8.784,8.096 C8.784,8.096 8.8,8 8.8,8 L8.8,4 C8.8,3.5581722 8.4418278,3.2 8,3.2 Z" id="Shape"></path>
            </g>
        </g>
    </g>
</svg>