<?xml version="1.0" encoding="UTF-8"?>
<svg width="20px" height="20px" viewBox="0 0 20 20" version="1.1" xmlns="http://www.w3.org/2000/svg" xmlns:xlink="http://www.w3.org/1999/xlink">
    <!-- Generator: Sketch 62 (91390) - https://sketch.com -->
    <title>icons/close</title>
    <desc>Created with Sketch.</desc>
    <g id="icons/close" stroke="none" stroke-width="1" fill="none" fill-rule="evenodd">
        <g id="close">
            <rect id="Rectangle" x="0" y="0" width="20" height="20"></rect>
            <g id="multiply" transform="translate(2.000000, 2.000000)" fill="#181818">
                <path d="M9.40897879,7.99829454 L15.7044159,1.71285017 C16.0962541,1.321012 16.0962541,0.685716801 15.7044159,0.293878629 C15.3125777,-0.0979595429 14.6772825,-0.0979595429 14.2854444,0.293878629 L8,6.58931576 L1.71455563,0.293878629 C1.32271746,-0.097959533 0.687422266,-0.0979595282 0.295584098,0.293878639 C-0.0962540693,0.685716807 -0.096254074,1.321012 0.295584088,1.71285017 L6.59102121,7.99829454 L0.295584088,14.2837389 C0.10640855,14.4713695 -3.01980663e-14,14.7267803 -3.01980663e-14,14.9932247 C-3.01980663e-14,15.2596691 0.10640855,15.5150798 0.295584088,15.7027105 C0.483214695,15.891886 0.738625439,15.9982945 1.00506986,15.9982945 C1.27151428,15.9982945 1.52692502,15.891886 1.71455563,15.7027105 L8,9.40727333 L14.2854444,15.7027105 C14.473075,15.891886 14.7284857,15.9982945 14.9949301,15.9982945 C15.2613746,15.9982945 15.5167853,15.891886 15.7044159,15.7027105 C15.8935915,15.5150798 16,15.2596691 16,14.9932247 C16,14.7267803 15.8935915,14.4713695 15.7044159,14.2837389 L9.40897879,7.99829454 Z" id="Path"></path>
            </g>
        </g>
    </g>
</svg>