<?xml version="1.0" encoding="UTF-8"?>
<svg width="20px" height="20px" viewBox="0 0 20 20" version="1.1" xmlns="http://www.w3.org/2000/svg" xmlns:xlink="http://www.w3.org/1999/xlink">
    <!-- Generator: Sketch 62 (91390) - https://sketch.com -->
    <title>icons/coins</title>
    <desc>Created with Sketch.</desc>
    <g id="icons/coins" stroke="none" stroke-width="1" fill="none" fill-rule="evenodd">
        <g id="hourglass">
            <rect id="Rectangle" x="0" y="0" width="20" height="20"></rect>
            <g id="coins" transform="translate(2.000000, 3.000000)" fill="#181818">
                <path d="M15.376,7 C15.7742313,6.5740601 15.9964715,6.02004249 16,5.44444444 C16,4.15578003 14.9254834,3.11111111 13.6,3.11111111 L9.456,3.11111111 C9.71531498,2.39804078 9.60304755,1.60700457 9.1547996,0.988853332 C8.70655164,0.370702098 7.97793267,0.00212349839 7.2,0 L2.4,0 C1.0745166,0 0,1.04466892 0,2.33333333 C0.00352848951,2.90893138 0.225768698,3.46294899 0.624,3.88888889 C-0.190860824,4.77462426 -0.190860824,6.11426463 0.624,7 C-0.190860824,7.88573537 -0.190860824,9.22537574 0.624,10.1111111 C0.225768698,10.537051 0.00352848951,11.0910686 0,11.6666667 C0,12.9553311 1.0745166,14 2.4,14 L13.6,14 C14.544114,13.9950954 15.3975595,13.4524923 15.7806856,12.6135649 C16.1638118,11.7746374 16.0054318,10.7952629 15.376,10.1111111 C16.1908608,9.22537574 16.1908608,7.88573537 15.376,7 L15.376,7 Z M7.2,12.4444444 L2.4,12.4444444 C1.9581722,12.4444444 1.6,12.0962215 1.6,11.6666667 C1.6,11.2371119 1.9581722,10.8888889 2.4,10.8888889 L7.2,10.8888889 C7.6418278,10.8888889 8,11.2371119 8,11.6666667 C8,12.0962215 7.6418278,12.4444444 7.2,12.4444444 Z M7.2,9.33333333 L2.4,9.33333333 C1.9581722,9.33333333 1.6,8.98511036 1.6,8.55555556 C1.6,8.12600075 1.9581722,7.77777778 2.4,7.77777778 L7.2,7.77777778 C7.6418278,7.77777778 8,8.12600075 8,8.55555556 C8,8.98511036 7.6418278,9.33333333 7.2,9.33333333 Z M7.2,6.22222222 L2.4,6.22222222 C1.9581722,6.22222222 1.6,5.87399925 1.6,5.44444444 C1.6,5.01488964 1.9581722,4.66666667 2.4,4.66666667 L7.2,4.66666667 C7.6418278,4.66666667 8,5.01488964 8,5.44444444 C8,5.87399925 7.6418278,6.22222222 7.2,6.22222222 Z M7.2,3.11111111 L2.4,3.11111111 C1.9581722,3.11111111 1.6,2.76288814 1.6,2.33333333 C1.6,1.90377853 1.9581722,1.55555556 2.4,1.55555556 L7.2,1.55555556 C7.6418278,1.55555556 8,1.90377853 8,2.33333333 C8,2.76288814 7.6418278,3.11111111 7.2,3.11111111 Z M14.152,12.2188889 C14.008613,12.3659178 13.8083718,12.4477394 13.6,12.4444444 L9.456,12.4444444 C9.64784139,11.9426982 9.64784139,11.3906352 9.456,10.8888889 L13.6,10.8888889 C14.0418278,10.8888889 14.4,11.2371119 14.4,11.6666667 C14.3970114,11.8756604 14.3076285,12.0746894 14.152,12.2188889 L14.152,12.2188889 Z M14.152,9.10777778 C14.008613,9.25480672 13.8083718,9.33662829 13.6,9.33333333 L9.456,9.33333333 C9.64784139,8.83158707 9.64784139,8.27952404 9.456,7.77777778 L13.6,7.77777778 C14.0418278,7.77777778 14.4,8.12600075 14.4,8.55555556 C14.3970114,8.76454932 14.3076285,8.96357834 14.152,9.10777778 L14.152,9.10777778 Z M14.152,5.99666667 C14.008613,6.14369561 13.8083718,6.22551718 13.6,6.22222222 L9.456,6.22222222 C9.64784139,5.72047596 9.64784139,5.16841293 9.456,4.66666667 L13.6,4.66666667 C14.0418278,4.66666667 14.4,5.01488964 14.4,5.44444444 C14.3970114,5.65343821 14.3076285,5.85246723 14.152,5.99666667 L14.152,5.99666667 Z" id="Shape"></path>
            </g>
        </g>
    </g>
</svg>