<?xml version="1.0" encoding="UTF-8"?>
<svg width="20px" height="20px" viewBox="0 0 20 20" version="1.1" xmlns="http://www.w3.org/2000/svg" xmlns:xlink="http://www.w3.org/1999/xlink">
    <!-- Generator: Sketch 62 (91390) - https://sketch.com -->
    <title>icons/crosshair</title>
    <desc>Created with Sketch.</desc>
    <g id="icons/crosshair" stroke="none" stroke-width="1" fill="none" fill-rule="evenodd">
        <g id="crosshair">
            <rect id="Rectangle" x="0" y="0" width="20" height="20"></rect>
            <g transform="translate(2.000000, 2.000000)" fill="#181818" id="Shape">
                <path d="M15.2,7.2 L14.344,7.2 C13.9767316,4.30384775 11.6961523,2.02326836 8.8,1.656 L8.8,0.8 C8.8,0.3581722 8.4418278,0 8,0 C7.5581722,0 7.2,0.3581722 7.2,0.8 L7.2,1.656 C4.30384775,2.02326836 2.02326836,4.30384775 1.656,7.2 L0.8,7.2 C0.3581722,7.2 0,7.5581722 0,8 C0,8.4418278 0.3581722,8.8 0.8,8.8 L1.656,8.8 C2.02326836,11.6961523 4.30384775,13.9767316 7.2,14.344 L7.2,15.2 C7.2,15.6418278 7.5581722,16 8,16 C8.4418278,16 8.8,15.6418278 8.8,15.2 L8.8,14.344 C11.6961523,13.9767316 13.9767316,11.6961523 14.344,8.8 L15.2,8.8 C15.6418278,8.8 16,8.4418278 16,8 C16,7.5581722 15.6418278,7.2 15.2,7.2 Z M12,8.8 L12.728,8.8 C12.3862714,10.8109382 10.8109382,12.3862714 8.8,12.728 L8.8,12 C8.8,11.5581722 8.4418278,11.2 8,11.2 C7.5581722,11.2 7.2,11.5581722 7.2,12 L7.2,12.728 C5.18906184,12.3862714 3.61372857,10.8109382 3.272,8.8 L4,8.8 C4.4418278,8.8 4.8,8.4418278 4.8,8 C4.8,7.5581722 4.4418278,7.2 4,7.2 L3.272,7.2 C3.61372857,5.18906184 5.18906184,3.61372857 7.2,3.272 L7.2,4 C7.2,4.4418278 7.5581722,4.8 8,4.8 C8.4418278,4.8 8.8,4.4418278 8.8,4 L8.8,3.272 C10.8109382,3.61372857 12.3862714,5.18906184 12.728,7.2 L12,7.2 C11.5581722,7.2 11.2,7.5581722 11.2,8 C11.2,8.4418278 11.5581722,8.8 12,8.8 Z M8,7.2 C7.5581722,7.2 7.2,7.5581722 7.2,8 C7.2,8.4418278 7.5581722,8.8 8,8.8 C8.4418278,8.8 8.8,8.4418278 8.8,8 C8.8,7.5581722 8.4418278,7.2 8,7.2 Z"></path>
            </g>
        </g>
    </g>
</svg>