<?xml version="1.0" encoding="UTF-8"?>
<svg width="20px" height="20px" viewBox="0 0 20 20" version="1.1" xmlns="http://www.w3.org/2000/svg" xmlns:xlink="http://www.w3.org/1999/xlink">
    <!-- Generator: Sketch 62 (91390) - https://sketch.com -->
    <title>icons/dark-mode</title>
    <desc>Created with Sketch.</desc>
    <g id="icons/dark-mode" stroke="none" stroke-width="1" fill="none" fill-rule="evenodd">
        <g id="dark-mode">
            <rect id="Rectangle" x="0" y="0" width="20" height="20"></rect>
            <g id="moon" transform="translate(2.000000, 2.000000)" fill="#181818">
                <path d="M15.6857162,8.80394754 C15.4502924,8.60370275 15.1245587,8.55901058 14.8463738,8.68878587 C14.0010995,9.08682319 13.0820556,9.2916842 12.1524845,9.28927172 C8.57307634,9.28482159 5.66753964,6.30961554 5.64558268,2.62634652 C5.64922781,2.07178772 5.71630391,1.51959858 5.8454261,0.981179806 C5.90121844,0.688966073 5.79917282,0.3885413 5.57862842,0.195720927 C5.35808401,0.00290055501 5.05348618,-0.0522000862 4.7822591,0.0516606111 C1.32633329,1.65074377 -0.591830246,5.50028855 0.163347588,9.3213117 C0.918525421,13.1423348 4.14550617,15.9150989 7.93387301,15.9980896 C11.7222398,16.0810803 15.0609705,13.4521494 15.9734907,9.66766007 C16.0559027,9.34637046 15.9423676,9.00561155 15.6857162,8.80394754 Z M8.09166616,14.3070302 C5.34285477,14.2870715 2.90276338,12.4917314 1.99538869,9.82158697 C1.088014,7.15144258 1.90912446,4.18258453 4.0468353,2.40424902 L4.0468353,2.62634652 C4.0512418,7.23107146 7.67768457,10.9628073 12.1524845,10.9673418 C12.7167498,10.9694717 13.2795841,10.9087961 13.8311692,10.7863734 C12.7069241,12.9749823 10.497375,14.3430042 8.09166616,14.3399387 L8.09166616,14.3070302 Z" id="Shape"></path>
            </g>
        </g>
    </g>
</svg>