<?xml version="1.0" encoding="UTF-8"?>
<svg width="20px" height="20px" viewBox="0 0 20 20" version="1.1" xmlns="http://www.w3.org/2000/svg" xmlns:xlink="http://www.w3.org/1999/xlink">
    <!-- Generator: Sketch 62 (91390) - https://sketch.com -->
    <title>icons/delete</title>
    <desc>Created with Sketch.</desc>
    <g id="icons/delete" stroke="none" stroke-width="1" fill="none" fill-rule="evenodd">
        <g id="Delete">
            <rect id="Rectangle" x="0" y="0" width="20" height="20"></rect>
            <g id="trash-alt" transform="translate(3.000000, 2.000000)" fill="#181818">
                <path d="M5.44444444,12.8 C5.87399925,12.8 6.22222222,12.4418278 6.22222222,12 L6.22222222,7.2 C6.22222222,6.7581722 5.87399925,6.4 5.44444444,6.4 C5.01488964,6.4 4.66666667,6.7581722 4.66666667,7.2 L4.66666667,12 C4.66666667,12.4418278 5.01488964,12.8 5.44444444,12.8 Z M13.2222222,3.2 L10.1111111,3.2 L10.1111111,2.4 C10.1111111,1.0745166 9.06644219,0 7.77777778,0 L6.22222222,0 C4.93355781,0 3.88888889,1.0745166 3.88888889,2.4 L3.88888889,3.2 L0.777777778,3.2 C0.348222972,3.2 0,3.5581722 0,4 C0,4.4418278 0.348222972,4.8 0.777777778,4.8 L1.55555556,4.8 L1.55555556,13.6 C1.55555556,14.9254834 2.60022447,16 3.88888889,16 L10.1111111,16 C11.3997755,16 12.4444444,14.9254834 12.4444444,13.6 L12.4444444,4.8 L13.2222222,4.8 C13.651777,4.8 14,4.4418278 14,4 C14,3.5581722 13.651777,3.2 13.2222222,3.2 Z M5.44444444,2.4 C5.44444444,1.9581722 5.79266742,1.6 6.22222222,1.6 L7.77777778,1.6 C8.20733258,1.6 8.55555556,1.9581722 8.55555556,2.4 L8.55555556,3.2 L5.44444444,3.2 L5.44444444,2.4 Z M10.8888889,13.6 C10.8888889,14.0418278 10.5406659,14.4 10.1111111,14.4 L3.88888889,14.4 C3.45933408,14.4 3.11111111,14.0418278 3.11111111,13.6 L3.11111111,4.8 L10.8888889,4.8 L10.8888889,13.6 Z M8.55555556,12.8 C8.98511036,12.8 9.33333333,12.4418278 9.33333333,12 L9.33333333,7.2 C9.33333333,6.7581722 8.98511036,6.4 8.55555556,6.4 C8.12600075,6.4 7.77777778,6.7581722 7.77777778,7.2 L7.77777778,12 C7.77777778,12.4418278 8.12600075,12.8 8.55555556,12.8 Z" id="Shape"></path>
            </g>
        </g>
    </g>
</svg>