<?xml version="1.0" encoding="UTF-8"?>
<svg width="20px" height="20px" viewBox="0 0 20 20" version="1.1" xmlns="http://www.w3.org/2000/svg" xmlns:xlink="http://www.w3.org/1999/xlink">
    <!-- Generator: Sketch 62 (91390) - https://sketch.com -->
    <title>icons/exit</title>
    <desc>Created with Sketch.</desc>
    <g id="icons/exit" stroke="none" stroke-width="1" fill="none" fill-rule="evenodd">
        <g id="Exit">
            <rect id="Rectangle" x="0" y="0" width="20" height="20"></rect>
            <g id="exit" transform="translate(4.000000, 2.000000)" fill="#000000" fill-rule="nonzero">
                <path d="M8.8817842e-16,8 C8.8817842e-16,8.4418278 0.335786438,8.8 0.75,8.8 L6.4425,8.8 L4.7175,10.632 C4.57551551,10.7822133 4.49565126,10.98669 4.49565126,11.2 C4.49565126,11.41331 4.57551551,11.6177867 4.7175,11.768 C4.85832495,11.9194501 5.05002185,12.0046387 5.25,12.0046387 C5.44997815,12.0046387 5.64167505,11.9194501 5.7825,11.768 L8.7825,8.568 C8.85078047,8.49191703 8.90430421,8.40220105 8.94,8.304 C9.01501351,8.10923092 9.01501351,7.89076908 8.94,7.696 C8.90430421,7.59779895 8.85078047,7.50808297 8.7825,7.432 L5.7825,4.232 C5.59225608,4.02907313 5.31496951,3.94982117 5.05509146,4.02409755 C4.79521342,4.09837393 4.59222556,4.31489432 4.52259145,4.59209756 C4.45295735,4.86930081 4.52725606,5.16507315 4.7175,5.368 L6.4425,7.2 L0.75,7.2 C0.335786438,7.2 8.8817842e-16,7.5581722 8.8817842e-16,8 Z M9.75,0 L2.25,0 C1.00735931,0 0,1.0745166 0,2.4 L0,4.8 C0,5.2418278 0.335786438,5.6 0.75,5.6 C1.16421356,5.6 1.5,5.2418278 1.5,4.8 L1.5,2.4 C1.5,1.9581722 1.83578644,1.6 2.25,1.6 L9.75,1.6 C10.1642136,1.6 10.5,1.9581722 10.5,2.4 L10.5,13.6 C10.5,14.0418278 10.1642136,14.4 9.75,14.4 L2.25,14.4 C1.83578644,14.4 1.5,14.0418278 1.5,13.6 L1.5,11.2 C1.5,10.7581722 1.16421356,10.4 0.75,10.4 C0.335786438,10.4 0,10.7581722 0,11.2 L0,13.6 C0,14.9254834 1.00735931,16 2.25,16 L9.75,16 C10.9926407,16 12,14.9254834 12,13.6 L12,2.4 C12,1.0745166 10.9926407,0 9.75,0 Z" id="Shape"></path>
            </g>
        </g>
    </g>
</svg>