<?xml version="1.0" encoding="UTF-8"?>
<svg width="20px" height="20px" viewBox="0 0 20 20" version="1.1" xmlns="http://www.w3.org/2000/svg" xmlns:xlink="http://www.w3.org/1999/xlink">
    <!-- Generator: Sketch 62 (91390) - https://sketch.com -->
    <title>icons/fire</title>
    <desc>Created with Sketch.</desc>
    <g id="icons/fire" stroke="none" stroke-width="1" fill="none" fill-rule="evenodd">
        <g id="fire">
            <rect id="Rectangle" x="0" y="0" width="20" height="20"></rect>
            <g transform="translate(3.000000, 2.000000)" fill="#181818" id="Shape">
                <path d="M11.9946823,5.21379572 C11.9405687,5.16529495 11.8805308,5.12285789 11.8157966,5.08735252 C11.630584,4.98597872 11.408512,4.96042681 11.2023182,5.01676484 C10.9961243,5.07310286 10.8242043,5.20630461 10.7273854,5.38473743 C10.4594693,5.87564627 10.0899649,6.31252824 9.64007091,6.67031924 C9.70886678,6.30982036 9.74355816,5.94440786 9.74374689,5.5782756 C9.74669174,3.31077246 8.4397709,1.21654866 6.32128063,0.0940794124 C6.08824533,-0.0287743529 5.80363366,-0.0314683652 5.56795785,0.0869487815 C5.33228203,0.205365928 5.17870778,0.428229871 5.16147072,0.676834931 C5.07351549,2.06278168 4.37892371,3.3547224 3.2394829,4.2517323 L3.06023156,4.3873544 C2.47061887,4.75631087 1.94872402,5.21114224 1.51458056,5.73438929 C0.146295214,7.33747918 -0.329857283,9.44642088 0.229554152,11.4259394 C0.788965588,13.4054578 2.31854943,15.0241604 4.3575502,15.7944463 C4.59733934,15.8855698 4.87018155,15.8596193 5.08517233,15.7252408 C5.30016312,15.5908623 5.42904942,15.3657152 5.42888942,15.1248131 C5.42833257,15.0480803 5.41527337,14.9718692 5.39015676,14.8987762 C5.21614896,14.2904815 5.16604163,13.657281 5.24242043,13.0318494 C5.97837219,14.3227651 7.1597164,15.3460277 8.59652899,15.937128 C8.77190983,16.0100959 8.97017376,16.0199139 9.15289491,15.9646792 C11.4610302,15.2718519 13.2186187,13.5166432 13.7976043,11.3262587 C14.37659,9.13587427 13.6943525,6.8228782 11.9946823,5.21379572 L11.9946823,5.21379572 Z M8.95767607,14.4947526 C7.58655959,13.8484894 6.57527485,12.6908839 6.17587759,11.3104396 C6.11556451,11.0806072 6.06890836,10.8478599 6.03612112,10.6132552 C5.99057804,10.3069669 5.74077305,10.061448 5.41444633,10.0022469 C5.36540883,9.9932545 5.31554058,9.98876043 5.26555891,9.98882935 C4.98732306,9.98873663 4.73024752,10.1269375 4.59147059,10.3512116 C3.94613617,11.3863665 3.62159704,12.5674826 3.65382128,13.763659 C2.50736575,12.9346864 1.76547654,11.7133752 1.59373364,10.3723061 C1.42199074,9.03123712 1.83469012,7.68204161 2.73972267,6.62584242 C3.07992734,6.21487835 3.49033519,5.8586132 3.95459051,5.57124495 C3.97469201,5.5591797 3.9939708,5.54596833 4.01231618,5.53168669 C4.01231618,5.53168669 4.24307107,5.35412662 4.2509576,5.35006157 C5.35903551,4.47843588 6.14715295,3.30706046 6.5054941,1.99915405 C8.24790459,3.49713475 8.69022425,5.89716872 7.58365431,7.84926952 C7.43825459,8.10833326 7.47471435,8.42330828 7.67607116,8.64765641 C7.87742797,8.87200454 8.20413992,8.9616689 8.50420837,8.87493427 C9.69557798,8.52762149 10.7439397,7.84920924 11.5081752,6.93101747 C12.4386472,8.20918577 12.6914504,9.81224528 12.1948102,11.2850632 C11.69817,12.757881 10.506323,13.9396149 8.95765273,14.4947526 L8.95767607,14.4947526 Z"></path>
            </g>
        </g>
    </g>
</svg>