<?xml version="1.0" encoding="UTF-8"?>
<svg width="20px" height="20px" viewBox="0 0 20 20" version="1.1" xmlns="http://www.w3.org/2000/svg" xmlns:xlink="http://www.w3.org/1999/xlink">
    <!-- Generator: Sketch 62 (91390) - https://sketch.com -->
    <title>icons/follow</title>
    <desc>Created with Sketch.</desc>
    <g id="icons/follow" stroke="none" stroke-width="1" fill="none" fill-rule="evenodd">
        <g id="follow">
            <rect id="Rectangle" x="0" y="0" width="20" height="20"></rect>
            <g id="eye" transform="translate(1.000000, 3.000000)" fill="#181818">
                <path d="M17.9248898,6.65 C16.1075231,2.54625 12.6887145,0 9,0 C5.31128547,0 1.89247687,2.54625 0.0751102,6.65 C-0.0250367333,6.87316916 -0.0250367333,7.12683084 0.0751102,7.35 C1.89247687,11.45375 5.31128547,14 9,14 C12.6887145,14 16.1075231,11.45375 17.9248898,7.35 C18.0250367,7.12683084 18.0250367,6.87316916 17.9248898,6.65 Z M9,12.25 C6.14799388,12.25 3.44893447,10.24625 1.89247687,7 C3.44893447,3.75375 6.14799388,1.75 9,1.75 C11.8520061,1.75 14.5510655,3.75375 16.1075231,7 C14.5510655,10.24625 11.8520061,12.25 9,12.25 Z M9,3.5 C7.01246753,3.5 5.40125411,5.06700338 5.40125411,7 C5.40125411,8.93299662 7.01246753,10.5 9,10.5 C10.9875325,10.5 12.5987459,8.93299662 12.5987459,7 C12.5987459,6.07174229 12.2195934,5.18150359 11.5446976,4.52512627 C10.8698018,3.86874894 9.95444675,3.5 9,3.5 Z M9,8.75 C8.00623376,8.75 7.20062706,7.96649831 7.20062706,7 C7.20062706,6.03350169 8.00623376,5.25 9,5.25 C9.99376624,5.25 10.7993729,6.03350169 10.7993729,7 C10.7993729,7.96649831 9.99376624,8.75 9,8.75 Z" id="Shape"></path>
            </g>
        </g>
    </g>
</svg>