<?xml version="1.0" encoding="UTF-8"?>
<svg width="20px" height="20px" viewBox="0 0 20 20" version="1.1" xmlns="http://www.w3.org/2000/svg" xmlns:xlink="http://www.w3.org/1999/xlink">
    <!-- Generator: Sketch 62 (91390) - https://sketch.com -->
    <title>icons/globe</title>
    <desc>Created with Sketch.</desc>
    <g id="icons/globe" stroke="none" stroke-width="1" fill="none" fill-rule="evenodd">
        <g id="globe">
            <rect id="Rectangle" x="0" y="0" width="20" height="20"></rect>
            <g transform="translate(2.000000, 2.000000)" fill="#181818" id="Shape">
                <path d="M15.5269361,5.30413578 C15.5269361,5.30413578 15.5269361,5.30413578 15.5269361,5.26401876 C14.3700186,2.10232159 11.3639426,0 8,0 C4.63605738,0 1.62998139,2.10232159 0.473063864,5.26401876 C0.473063864,5.26401876 0.473063864,5.26401876 0.473063864,5.30413578 C-0.157687955,7.04593358 -0.157687955,8.95406642 0.473063864,10.6958642 C0.473063864,10.6958642 0.473063864,10.6958642 0.473063864,10.7359812 C1.62998139,13.8976784 4.63605738,16 8,16 C11.3639426,16 14.3700186,13.8976784 15.5269361,10.7359812 C15.5269361,10.7359812 15.5269361,10.7359812 15.5269361,10.6958642 C16.157688,8.95406642 16.157688,7.04593358 15.5269361,5.30413578 L15.5269361,5.30413578 Z M1.77965661,9.60468108 C1.50168703,8.55298414 1.50168703,7.44701586 1.77965661,6.39531892 L3.27061521,6.39531892 C3.14238644,7.46125662 3.14238644,8.53874338 3.27061521,9.60468108 L1.77965661,9.60468108 Z M2.43696094,11.2093622 L3.55918784,11.2093622 C3.74733623,11.9249228 4.01626489,12.6167161 4.36077848,13.2713774 C3.57465694,12.7353577 2.91751187,12.0310065 2.43696094,11.2093622 L2.43696094,11.2093622 Z M3.55918784,4.79063784 L2.43696094,4.79063784 C2.9105968,3.97151649 3.55934167,3.2673671 4.33673076,2.72862265 C4.00050688,3.38433057 3.73965922,4.07608896 3.55918784,4.79063784 L3.55918784,4.79063784 Z M7.18237754,14.1780222 C6.1978358,13.4548577 5.50637045,12.4010243 5.23451228,11.2093622 L7.18237754,11.2093622 L7.18237754,14.1780222 Z M7.18237754,9.60468108 L4.88982831,9.60468108 C4.74024315,8.54013249 4.74024315,7.45986751 4.88982831,6.39531892 L7.18237754,6.39531892 L7.18237754,9.60468108 Z M7.18237754,4.79063784 L5.23451228,4.79063784 C5.50637045,3.59897574 6.1978358,2.54514231 7.18237754,1.82197784 L7.18237754,4.79063784 Z M13.5309754,4.79063784 L12.4087485,4.79063784 C12.2206001,4.07507716 11.9516715,3.38328392 11.6071579,2.72862265 C12.3932794,3.2646423 13.0504245,3.96899346 13.5309754,4.79063784 Z M8.78555883,1.82197784 C9.77010057,2.54514231 10.4615659,3.59897574 10.7334241,4.79063784 L8.78555883,4.79063784 L8.78555883,1.82197784 Z M8.78555883,14.1780222 L8.78555883,11.2093622 L10.7334241,11.2093622 C10.4615659,12.4010243 9.77010057,13.4548577 8.78555883,14.1780222 L8.78555883,14.1780222 Z M11.0781081,9.60468108 L8.78555883,9.60468108 L8.78555883,6.39531892 L11.0781081,6.39531892 C11.2276932,7.45986751 11.2276932,8.54013249 11.0781081,9.60468108 Z M11.6312056,13.2713774 C11.9757192,12.6167161 12.2446479,11.9249228 12.4327963,11.2093622 L13.5550232,11.2093622 C13.0744722,12.0310065 12.4173272,12.7353577 11.6312056,13.2713774 Z M14.1882798,9.60468108 L12.6973212,9.60468108 C12.7625142,9.07229376 12.7946396,8.53637027 12.793512,8 C12.7943942,7.46363686 12.7622698,6.92772852 12.6973212,6.39531892 L14.1882798,6.39531892 C14.4662493,7.44701586 14.4662493,8.55298414 14.1882798,9.60468108 L14.1882798,9.60468108 Z"></path>
            </g>
        </g>
    </g>
</svg>