<?xml version="1.0" encoding="UTF-8"?>
<svg width="20px" height="20px" viewBox="0 0 20 20" version="1.1" xmlns="http://www.w3.org/2000/svg" xmlns:xlink="http://www.w3.org/1999/xlink">
    <!-- Generator: Sketch 62 (91390) - https://sketch.com -->
    <title>icons/heart</title>
    <desc>Created with Sketch.</desc>
    <g id="icons/heart" stroke="none" stroke-width="1" fill="none" fill-rule="evenodd">
        <g id="heart">
            <rect id="Rectangle" x="0" y="0" width="20" height="20"></rect>
            <g transform="translate(1.000000, 2.000000)" fill="#181818" id="Shape">
                <path d="M16.3589545,1.69512579 C14.3872523,-0.285660309 11.2688841,-0.530726625 9.01309488,1.11782938 C6.63680232,-0.653173789 3.29855659,-0.282775405 1.36653536,1.96626102 C-0.565485881,4.21529745 -0.434209821,7.5780835 1.66723527,9.66903241 L7.25765049,15.2796319 C8.23165691,16.2401227 9.79453285,16.2401227 10.7685393,15.2796319 L16.3589545,9.66903241 C18.5470152,7.463171 18.5470152,3.90098721 16.3589545,1.69512579 L16.3589545,1.69512579 Z M15.0896332,8.42423703 L9.49921794,14.0258162 C9.37072516,14.15582 9.19569848,14.2289617 9.01309488,14.2289617 C8.83049129,14.2289617 8.6554646,14.15582 8.52697182,14.0258162 L2.9365566,8.39717626 C1.46811747,6.89313508 1.46811747,4.48906363 2.9365566,2.98502245 C4.433651,1.50397903 6.84082956,1.50397903 8.33792396,2.98502245 C8.50695669,3.15578731 8.73705122,3.25184012 8.97708576,3.25184012 C9.21712031,3.25184012 9.44721484,3.15578731 9.61624757,2.98502245 C11.113342,1.50397903 13.5205205,1.50397903 15.0176149,2.98502245 C16.5062496,4.46936829 16.538242,6.87358897 15.0896332,8.39717626 L15.0896332,8.42423703 Z"></path>
            </g>
        </g>
    </g>
</svg>