<?xml version="1.0" encoding="UTF-8"?>
<svg width="20px" height="20px" viewBox="0 0 20 20" version="1.1" xmlns="http://www.w3.org/2000/svg" xmlns:xlink="http://www.w3.org/1999/xlink">
    <!-- Generator: Sketch 62 (91390) - https://sketch.com -->
    <title>icons/hourglass</title>
    <desc>Created with Sketch.</desc>
    <g id="icons/hourglass" stroke="none" stroke-width="1" fill="none" fill-rule="evenodd">
        <g id="hourglass">
            <rect id="Rectangle" x="0" y="0" width="20" height="20"></rect>
            <g transform="translate(4.000000, 2.000000)" fill="#181818" id="Shape">
                <path d="M11.25,14.5454545 L10.5,14.5454545 L10.5,13.3330909 C10.4976625,12.9168986 10.421669,12.5041835 10.27533,12.1129236 C10.2671325,12.0915709 10.25853,12.0717745 10.2484125,12.05144 C10.1269394,11.7302904 9.95913258,11.4274598 9.75,11.1519855 L8.700075,9.79402909 C8.40876115,9.41574526 8.25093417,8.95648982 8.25,8.48437091 L8.25,7.74996364 C8.25171633,7.171728 8.48843287,6.61745781 8.908815,6.20735273 L9.40173,5.72936727 C9.97444182,5.17100085 10.3423454,4.44579933 10.4489625,3.66509091 C10.4493675,3.65497455 10.4549625,3.64653818 10.4549625,3.63632727 L10.452855,3.62634182 C10.4789302,3.47148926 10.4946803,3.31516733 10.5,3.15834909 L10.5,1.45454545 L11.2500075,1.45454545 C11.6642211,1.45454545 12,1.12893436 12,0.727272727 C12,0.325611091 11.6642211,0 11.2500075,0 L0.7500075,0 C0.335793938,0 0,0.325611091 0,0.727272727 C0,1.12893436 0.335793938,1.45454545 0.7500075,1.45454545 L1.5,1.45454545 L1.5,3.15834909 C1.50533466,3.31516733 1.52108484,3.47148926 1.54716,3.62634182 L1.545045,3.63636364 C1.545045,3.64654545 1.550625,3.65501091 1.551045,3.66512727 C1.65766276,4.445834 2.02556321,5.17103461 2.59827,5.72940364 L3.0911925,6.20738909 C3.51156277,6.61748641 3.7482758,7.17174164 3.75,7.74996364 L3.75,8.48436364 C3.74902325,8.95641864 3.59134164,9.41562606 3.3002925,9.79402182 L2.2496325,11.1519564 C2.04056562,11.4275628 1.87280714,11.7304935 1.751355,12.0517236 C1.74138,12.0718764 1.732815,12.0914545 1.724715,12.1125818 C1.57835718,12.5039565 1.50234904,12.9167845 1.5,13.3330909 L1.5,14.5454545 L0.75,14.5454545 C0.335786438,14.5454545 0,14.8710656 0,15.2727273 C0,15.6743889 0.335786438,16 0.75,16 L11.25,16 C11.6642136,16 12,15.6743889 12,15.2727273 C12,14.8710656 11.6642136,14.5454545 11.25,14.5454545 Z M3,2.90909091 L3,1.45454545 L9,1.45454545 L9,2.90909091 L3,2.90909091 Z M3.658815,4.70099636 C3.55313528,4.59804464 3.4584335,4.48501929 3.3761475,4.36363636 L8.6238525,4.36363636 C8.54156411,4.48501759 8.44686251,4.59804272 8.341185,4.70099636 L7.8482625,5.17898182 C7.26323867,5.74294531 6.88810862,6.47946539 6.78186,7.27272727 L5.21811,7.27272727 C5.11188626,6.47944152 4.73676271,5.74289309 4.15173,5.17890909 L3.658815,4.70099636 Z M4.5003675,10.6661818 C4.93433138,10.1023148 5.19165521,9.42918905 5.2415775,8.72727273 L6.7584225,8.72727273 C6.80830296,9.42925705 7.06577079,10.1024257 7.5,10.6661818 L8.25009,11.6363636 L3.7497225,11.6363636 L4.5003675,10.6661818 Z M9,14.5454545 L3,14.5454545 L3,13.3330909 C3.00208781,13.2520548 3.00890371,13.1711982 3.020415,13.0909091 L8.979585,13.0909091 C8.99109629,13.1711982 8.99791219,13.2520548 9,13.3330909 L9,14.5454545 Z"></path>
            </g>
        </g>
    </g>
</svg>