<?xml version="1.0" encoding="UTF-8"?>
<svg width="20px" height="20px" viewBox="0 0 20 20" version="1.1" xmlns="http://www.w3.org/2000/svg" xmlns:xlink="http://www.w3.org/1999/xlink">
    <!-- Generator: Sketch 62 (91390) - https://sketch.com -->
    <title>icons/instagram</title>
    <desc>Created with Sketch.</desc>
    <g id="icons/instagram" stroke="none" stroke-width="1" fill="none" fill-rule="evenodd">
        <g id="instagram">
            <rect id="Rectangle" x="0" y="0" width="20" height="20"></rect>
            <g transform="translate(2.000000, 2.000000)" fill="#181818" id="Shape">
                <path d="M12.272,2.768 L12.272,2.768 C11.8837162,2.768 11.5336654,3.00189649 11.3850756,3.3606239 C11.2364859,3.71935132 11.3186194,4.13226443 11.5931775,4.40682251 C11.8677356,4.68138059 12.2806487,4.76351411 12.6393761,4.61492435 C12.9981035,4.46633459 13.232,4.11628376 13.232,3.728 C13.232,3.19780664 12.8021934,2.768 12.272,2.768 L12.272,2.768 Z M15.952,4.704 C15.9364418,4.04023859 15.8121252,3.3835224 15.584,2.76 C15.3805855,2.22650608 15.0639886,1.74342278 14.656,1.344 C14.2598579,0.933940717 13.7756482,0.619341188 13.24,0.424 C12.6181254,0.188928644 11.9606781,0.0617680418 11.296,0.048 C10.448,0 10.176,0 8,0 C5.824,0 5.552,0 4.704,0.048 C4.03932192,0.0617680418 3.38187456,0.188928644 2.76,0.424 C2.22534126,0.621318854 1.74154708,0.935648405 1.344,1.344 C0.933940717,1.74014209 0.619341188,2.2243518 0.424,2.76 C0.188928644,3.38187456 0.0617680418,4.03932192 0.048,4.704 C0,5.552 0,5.824 0,8 C0,10.176 0,10.448 0.048,11.296 C0.0617680418,11.9606781 0.188928644,12.6181254 0.424,13.24 C0.619341188,13.7756482 0.933940717,14.2598579 1.344,14.656 C1.74154708,15.0643516 2.22534126,15.3786811 2.76,15.576 C3.38187456,15.8110714 4.03932192,15.938232 4.704,15.952 C5.552,16 5.824,16 8,16 C10.176,16 10.448,16 11.296,15.952 C11.9606781,15.938232 12.6181254,15.8110714 13.24,15.576 C13.7756482,15.3806588 14.2598579,15.0660593 14.656,14.656 C15.0657937,14.2580643 15.3826694,13.7745556 15.584,13.24 C15.8121252,12.6164776 15.9364418,11.9597614 15.952,11.296 C15.952,10.448 16,10.176 16,8 C16,5.824 16,5.552 15.952,4.704 Z M14.512,11.2 C14.5061755,11.7078169 14.4142027,12.2109619 14.24,12.688 C14.1122671,13.0361549 13.9071035,13.350739 13.64,13.608 C13.3805178,13.8724051 13.066581,14.0771465 12.72,14.208 C12.2429619,14.3822027 11.7398169,14.4741755 11.232,14.48 C10.432,14.52 10.136,14.528 8.032,14.528 C5.928,14.528 5.632,14.528 4.832,14.48 C4.3047126,14.4898728 3.77967589,14.4086816 3.28,14.24 C2.94862539,14.102462 2.64908474,13.8982298 2.4,13.64 C2.13447085,13.3829987 1.93187445,13.068153 1.808,12.72 C1.61268495,12.2361219 1.50435485,11.7215539 1.488,11.2 C1.488,10.4 1.44,10.104 1.44,8 C1.44,5.896 1.44,5.6 1.488,4.8 C1.49158593,4.28084438 1.58636007,3.7663562 1.768,3.28 C1.90883764,2.94232892 2.12501196,2.6413267 2.4,2.4 C2.64305073,2.12493459 2.94343025,1.90647676 3.28,1.76 C3.76764087,1.58403498 4.28159785,1.49206373 4.8,1.488 C5.6,1.488 5.896,1.44 8,1.44 C10.104,1.44 10.4,1.44 11.2,1.488 C11.7078169,1.49382454 12.2109619,1.58579728 12.688,1.76 C13.0515437,1.89492198 13.3778349,2.11427736 13.64,2.4 C13.9021616,2.6457427 14.1070094,2.94618618 14.24,3.28 C14.4178024,3.76714695 14.5098309,4.28142392 14.512,4.8 C14.552,5.6 14.56,5.896 14.56,8 C14.56,10.104 14.552,10.4 14.512,11.2 Z M8,3.89596867 C5.73447003,3.90041625 3.90106073,5.73979058 3.90399992,8.00532294 C3.90694619,10.2708553 5.74512768,12.1054606 8.01066147,12.1039922 C10.2761953,12.1025221 12.1120079,10.2655343 12.1120079,8 C12.1141382,6.90950969 11.6813407,5.86318394 10.9094957,5.09284055 C10.1376507,4.32249716 9.09048408,3.89173817 8,3.89596867 Z M8,10.664 C6.52871343,10.664 5.336,9.47128657 5.336,8 C5.336,6.52871343 6.52871343,5.336 8,5.336 C9.47128657,5.336 10.664,6.52871343 10.664,8 C10.664,8.70653673 10.3833294,9.38413555 9.88373247,9.88373247 C9.38413555,10.3833294 8.70653673,10.664 8,10.664 Z"></path>
            </g>
        </g>
    </g>
</svg>