<?xml version="1.0" encoding="UTF-8"?>
<svg width="20px" height="20px" viewBox="0 0 20 20" version="1.1" xmlns="http://www.w3.org/2000/svg" xmlns:xlink="http://www.w3.org/1999/xlink">
    <!-- Generator: Sketch 62 (91390) - https://sketch.com -->
    <title>icons/lgbt</title>
    <desc>Created with Sketch.</desc>
    <g id="icons/lgbt" stroke="none" stroke-width="1" fill="none" fill-rule="evenodd">
        <g id="lgbt">
            <rect id="Rectangle" x="0" y="0" width="20" height="20"></rect>
            <g id="user-plus" transform="translate(1.000000, 3.000000)" fill="#181818">
                <path d="M17.1,6.17647059 L16.2,6.17647059 L16.2,5.29411765 C16.2,4.80680757 15.7970563,4.41176471 15.3,4.41176471 C14.8029437,4.41176471 14.4,4.80680757 14.4,5.29411765 L14.4,6.17647059 L13.5,6.17647059 C13.0029437,6.17647059 12.6,6.57151346 12.6,7.05882353 C12.6,7.5461336 13.0029437,7.94117647 13.5,7.94117647 L14.4,7.94117647 L14.4,8.82352941 C14.4,9.31083949 14.8029437,9.70588235 15.3,9.70588235 C15.7970563,9.70588235 16.2,9.31083949 16.2,8.82352941 L16.2,7.94117647 L17.1,7.94117647 C17.5970563,7.94117647 18,7.5461336 18,7.05882353 C18,6.57151346 17.5970563,6.17647059 17.1,6.17647059 Z M10.17,7.69411765 C11.1416843,6.86951597 11.700014,5.67171509 11.7,4.41176471 C11.7,1.97521434 9.68528137,0 7.2,0 C4.71471863,0 2.7,1.97521434 2.7,4.41176471 C2.69998596,5.67171509 3.25831572,6.86951597 4.23,7.69411765 C1.65684686,8.83644524 0.00270549009,11.3483662 0,14.1176471 C0,14.6049571 0.402943725,15 0.9,15 C1.39705627,15 1.8,14.6049571 1.8,14.1176471 C1.80000004,11.1937866 4.21766238,8.82352949 7.2,8.82352949 C10.1823376,8.82352949 12.6,11.1937866 12.6,14.1176471 C12.6,14.6049571 13.0029437,15 13.5,15 C13.9970563,15 14.4,14.6049571 14.4,14.1176471 C14.3972945,11.3483662 12.7431531,8.83644524 10.17,7.69411765 L10.17,7.69411765 Z M7.2,7.05882353 C5.70883118,7.05882353 4.5,5.87369493 4.5,4.41176471 C4.5,2.94983449 5.70883118,1.76470588 7.2,1.76470588 C8.69116882,1.76470588 9.9,2.94983449 9.9,4.41176471 C9.9,5.11380836 9.61553653,5.78709812 9.10918831,6.28351795 C8.60284009,6.77993778 7.91608452,7.05882353 7.2,7.05882353 Z" id="Shape"></path>
            </g>
        </g>
    </g>
</svg>