<?xml version="1.0" encoding="UTF-8"?>
<svg width="20px" height="20px" viewBox="0 0 20 20" version="1.1" xmlns="http://www.w3.org/2000/svg" xmlns:xlink="http://www.w3.org/1999/xlink">
    <!-- Generator: Sketch 62 (91390) - https://sketch.com -->
    <title>icons/light-mode</title>
    <desc>Created with Sketch.</desc>
    <g id="icons/light-mode" stroke="none" stroke-width="1" fill="none" fill-rule="evenodd">
        <g id="light-mode">
            <rect id="Rectangle" x="0" y="0" width="20" height="20"></rect>
            <g id="sun" transform="translate(2.000000, 2.000000)" fill="#181818">
                <path d="M2.912,12 L2.344,12.568 C2.03382112,12.88003 2.03382112,13.38397 2.344,13.696 C2.65602996,14.0061789 3.15997004,14.0061789 3.472,13.696 L4.04,13.128 C4.31182144,12.8105918 4.29354582,12.3374447 3.99805058,12.0419494 C3.70255534,11.7464542 3.22940822,11.7281786 2.912,12 L2.912,12 Z M2.4,8 C2.4,7.5581722 2.0418278,7.2 1.6,7.2 L0.8,7.2 C0.3581722,7.2 0,7.5581722 0,8 C0,8.4418278 0.3581722,8.8 0.8,8.8 L1.6,8.8 C2.0418278,8.8 2.4,8.4418278 2.4,8 Z M8,2.4 C8.4418278,2.4 8.8,2.0418278 8.8,1.6 L8.8,0.8 C8.8,0.3581722 8.4418278,0 8,0 C7.5581722,0 7.2,0.3581722 7.2,0.8 L7.2,1.6 C7.2,2.0418278 7.5581722,2.4 8,2.4 Z M2.912,4.04 C3.06100851,4.18779533 3.2621281,4.2711163 3.472,4.27201339 C3.68464239,4.27322941 3.88902494,4.18974921 4.04,4.04 C4.35017888,3.72797004 4.35017888,3.22402996 4.04,2.912 L3.472,2.344 C3.15459178,2.07217856 2.68144466,2.09045418 2.38594942,2.38594942 C2.09045418,2.68144466 2.07217856,3.15459178 2.344,3.472 L2.912,4.04 Z M12.512,4.272 C12.7218719,4.2711163 12.9229915,4.18779533 13.072,4.04 L13.64,3.472 C13.8683009,3.27648809 13.9677456,2.96950528 13.8974481,2.67726482 C13.8271507,2.38502436 13.5989756,2.15684934 13.3067352,2.08655189 C13.0144947,2.01625444 12.7075119,2.11569907 12.512,2.344 L12,2.912 C11.6898211,3.22402996 11.6898211,3.72797004 12,4.04 C12.1410344,4.1802895 12.3292769,4.26300213 12.528,4.272 L12.512,4.272 Z M15.2,7.2 L14.4,7.2 C13.9581722,7.2 13.6,7.5581722 13.6,8 C13.6,8.4418278 13.9581722,8.8 14.4,8.8 L15.2,8.8 C15.6418278,8.8 16,8.4418278 16,8 C16,7.5581722 15.6418278,7.2 15.2,7.2 Z M8,13.6 C7.5581722,13.6 7.2,13.9581722 7.2,14.4 L7.2,15.2 C7.2,15.6418278 7.5581722,16 8,16 C8.4418278,16 8.8,15.6418278 8.8,15.2 L8.8,14.4 C8.8,13.9581722 8.4418278,13.6 8,13.6 Z M13.088,12 C12.7757207,11.8263011 12.3861157,11.880765 12.1334403,12.1334403 C11.880765,12.3861157 11.8263011,12.7757207 12,13.088 L12.568,13.656 C12.88003,13.9661789 13.38397,13.9661789 13.696,13.656 C14.0061789,13.34397 14.0061789,12.84003 13.696,12.528 L13.088,12 Z M8,3.6 C5.5699471,3.6 3.6,5.5699471 3.6,8 C3.6,10.4300529 5.5699471,12.4 8,12.4 C10.4300529,12.4 12.4,10.4300529 12.4,8 C12.395597,5.57177321 10.4282268,3.60440296 8,3.6 Z M8,10.8 C6.86750571,10.8 5.84652411,10.1178019 5.41313731,9.07151361 C4.97975051,8.02522532 5.21930662,6.8208954 6.02010101,6.02010101 C6.8208954,5.21930662 8.02522532,4.97975051 9.07151361,5.41313731 C10.1178019,5.84652411 10.8,6.86750571 10.8,8 C10.8,9.5463973 9.5463973,10.8 8,10.8 L8,10.8 Z" id="Shape"></path>
            </g>
        </g>
    </g>
</svg>