<?xml version="1.0" encoding="UTF-8"?>
<svg width="20px" height="20px" viewBox="0 0 20 20" version="1.1" xmlns="http://www.w3.org/2000/svg" xmlns:xlink="http://www.w3.org/1999/xlink">
    <!-- Generator: Sketch 62 (91390) - https://sketch.com -->
    <title>icons/lush</title>
    <desc>Created with Sketch.</desc>
    <g id="icons/lush" stroke="none" stroke-width="1" fill="none" fill-rule="evenodd">
        <g id="lush">
            <rect id="Rectangle" x="0" y="0" width="20" height="20"></rect>
            <g id="heart-rate" transform="translate(2.000000, 4.000000)" fill="#181818">
                <path d="M15.2,5.2495045 L12.048,5.2495045 C11.992256,5.24240436 11.935744,5.24240436 11.88,5.2495045 L11.744,5.2495045 C11.702197,5.27187273 11.6621006,5.29693481 11.624,5.32451 C11.5794538,5.35208772 11.5367105,5.38214381 11.496,5.41451661 C11.4692927,5.44518635 11.4452174,5.47779062 11.424,5.51202377 C11.3873416,5.55927366 11.3552162,5.60947324 11.328,5.66203478 L11.328,5.66203478 L10.048,8.96977757 L6.712,0.494155441 C6.59716664,0.197520307 6.29658254,0 5.96,0 C5.62341746,0 5.32283336,0.197520307 5.208,0.494155441 L3.36,5.2495045 L0.8,5.2495045 C0.3581722,5.2495045 0,5.58531558 0,5.99955955 C0,6.41380352 0.3581722,6.74961461 0.8,6.74961461 L3.936,6.74961461 L4.12,6.74961461 L4.24,6.74961461 C4.28547165,6.72908995 4.32839659,6.70393677 4.368,6.6746091 C4.41254624,6.64703138 4.45528954,6.61697529 4.496,6.5846025 L4.568,6.48709534 C4.60613143,6.44077365 4.63835052,6.39042762 4.664,6.33708433 L4.664,6.33708433 L5.96,2.93933492 L9.288,11.5049637 C9.40252016,11.801946 9.70317594,11.9998656 10.04,12 L10.04,12 C10.3768241,11.9998656 10.6774798,11.801946 10.792,11.5049637 L12.632,6.74961461 L15.2,6.74961461 C15.6418278,6.74961461 16,6.41380352 16,5.99955955 C16,5.58531558 15.6418278,5.2495045 15.2,5.2495045 Z" id="Path"></path>
            </g>
        </g>
    </g>
</svg>