<?xml version="1.0" encoding="UTF-8"?>
<svg width="20px" height="20px" viewBox="0 0 20 20" version="1.1" xmlns="http://www.w3.org/2000/svg" xmlns:xlink="http://www.w3.org/1999/xlink">
    <!-- Generator: Sketch 62 (91390) - https://sketch.com -->
    <title>icons/mail</title>
    <desc>Created with Sketch.</desc>
    <g id="icons/mail" stroke="none" stroke-width="1" fill="none" fill-rule="evenodd">
        <g id="mail">
            <rect id="Rectangle" x="0" y="0" width="20" height="20"></rect>
            <g id="envelope-alt" transform="translate(2.000000, 4.000000)" fill="#181818">
                <path d="M13.6,0 L2.4,0 C1.0745166,0 0,1.09130592 0,2.4375 L0,10.5625 C0,11.9086941 1.0745166,13 2.4,13 L13.6,13 C14.9254834,13 16,11.9086941 16,10.5625 L16,2.4375 C16,1.09130592 14.9254834,0 13.6,0 Z M2.4,1.625 L13.6,1.625 C14.0418278,1.625 14.4,1.98876864 14.4,2.4375 L8,6.4025 L1.6,2.4375 C1.6,1.98876864 1.9581722,1.625 2.4,1.625 Z M14.4,10.5625 C14.4,11.0112314 14.0418278,11.375 13.6,11.375 L2.4,11.375 C1.9581722,11.375 1.6,11.0112314 1.6,10.5625 L1.6,4.29 L7.584,8.003125 C7.83152086,8.14826415 8.13647914,8.14826415 8.384,8.003125 L14.4,4.29 L14.4,10.5625 Z" id="Shape"></path>
            </g>
        </g>
    </g>
</svg>