<?xml version="1.0" encoding="UTF-8"?>
<svg width="20px" height="20px" viewBox="0 0 20 20" version="1.1" xmlns="http://www.w3.org/2000/svg" xmlns:xlink="http://www.w3.org/1999/xlink">
    <!-- Generator: Sketch 62 (91390) - https://sketch.com -->
    <title>icons/man</title>
    <desc>Created with Sketch.</desc>
    <g id="icons/man" stroke="none" stroke-width="1" fill="none" fill-rule="evenodd">
        <g id="Male">
            <rect id="Rectangle" x="0" y="0" width="20" height="20"></rect>
            <g id="mars" transform="translate(2.000000, 3.000000)" fill="#181818">
                <path d="M14.9294296,0.546920286 C14.8399156,0.331372545 14.6686275,0.160084381 14.4530797,0.0705703595 C14.3470281,0.0253691845 14.2331448,0.0013937535 14.1178705,0 L10.5893525,0 C10.1021659,0 9.70722304,0.394942827 9.70722304,0.882129494 C9.70722304,1.36931616 10.1021659,1.76425899 10.5893525,1.76425899 L11.9919384,1.76425899 L9.87482764,3.88136977 C7.2814576,1.94047422 3.62910912,2.33346894 1.50800557,4.78164446 C-0.613097994,7.22981998 -0.481876495,10.9009064 1.80860857,13.1913914 C4.09909364,15.4818765 7.77018002,15.613098 10.2183555,13.4919944 C12.6665311,11.3708909 13.0595258,7.7185424 11.1186302,5.12517236 L13.235741,3.00806157 L13.235741,4.41064747 C13.235741,4.89783414 13.6306838,5.29277696 14.1178705,5.29277696 C14.6050572,5.29277696 15,4.89783414 15,4.41064747 L15,0.882129494 C14.9986062,0.766855231 14.9746308,0.652971934 14.9294296,0.546920286 Z M9.26615829,11.9087482 C8.01177825,13.1884718 6.10781524,13.5820617 4.44884116,12.9045909 C2.78986708,12.22712 1.7056785,10.6132664 1.7056785,8.82129494 C1.7056785,7.02932346 2.78986708,5.4154699 4.44884116,4.73799902 C6.10781524,4.06052815 8.01177825,4.4541181 9.26615829,5.73384171 L9.26615829,5.73384171 C10.9472452,7.44889335 10.9472452,10.1936965 9.26615829,11.9087482 Z" id="Shape"></path>
            </g>
        </g>
    </g>
</svg>