<?xml version="1.0" encoding="UTF-8"?>
<svg width="20px" height="20px" viewBox="0 0 20 20" version="1.1" xmlns="http://www.w3.org/2000/svg" xmlns:xlink="http://www.w3.org/1999/xlink">
    <!-- Generator: Sketch 62 (91390) - https://sketch.com -->
    <title>icons/price-tag</title>
    <desc>Created with Sketch.</desc>
    <g id="icons/price-tag" stroke="none" stroke-width="1" fill="none" fill-rule="evenodd">
        <g id="price-tag">
            <rect id="Rectangle" x="0" y="0" width="20" height="20"></rect>
            <g id="pricetag-alt" transform="translate(2.000000, 2.000000)" fill="#181818">
                <path d="M4.00001324,3.2016167 C3.55818691,3.2016167 3.20001589,3.55996689 3.20001589,4.00201425 C3.20001589,4.44406161 3.55818691,4.80241179 4.00001324,4.80241179 C4.44183958,4.80241179 4.8000106,4.44406161 4.8000106,4.00201425 C4.8000106,3.55996689 4.44183958,3.2016167 4.00001324,3.2016167 Z M15.7679743,7.82791453 L8.18399939,0.256153719 C8.03322246,0.0934943982 7.82173264,0.000740153342 7.60000132,1.31074847e-05 L2.80001722,1.31074847e-05 C2.58737553,-0.00120351481 2.38299366,0.082318165 2.2320191,0.232141792 L0.232025722,2.22513169 C0.082277006,2.37618178 -0.00120291306,2.58066589 1.31009309e-05,2.79341395 L1.31009309e-05,7.59579924 C0.00297327167,7.80771808 0.0858392247,8.01069828 0.232025722,8.1640815 L7.82400058,15.7678582 C7.9773071,15.9141178 8.18018582,15.9970252 8.3919987,15.9999869 C8.60464039,16.0012035 8.80902226,15.9176818 8.95999682,15.7678582 L15.7679743,8.95647507 C15.917723,8.80542498 16.0012029,8.60094087 15.9999869,8.38819281 C15.9950335,8.17905339 15.9123098,7.97927551 15.7679743,7.82791453 Z M8.3919987,14.0790194 L1.60002119,7.27564022 L1.60002119,3.12157694 L3.12001616,1.6008216 L7.26400244,1.6008216 L14.0639799,8.39619679 L8.3919987,14.0790194 Z" id="Shape"></path>
            </g>
        </g>
    </g>
</svg>