<?xml version="1.0" encoding="UTF-8"?>
<svg width="20px" height="20px" viewBox="0 0 20 20" version="1.1" xmlns="http://www.w3.org/2000/svg" xmlns:xlink="http://www.w3.org/1999/xlink">
    <!-- Generator: Sketch 62 (91390) - https://sketch.com -->
    <title>icons/search</title>
    <desc>Created with Sketch.</desc>
    <g id="icons/search" stroke="none" stroke-width="1" fill="none" fill-rule="evenodd">
        <g id="Search">
            <rect id="Rectangle" x="0" y="0" width="20" height="20"></rect>
            <g id="search" transform="translate(2.000000, 2.000000)" fill="#181818">
                <path d="M15.7753415,14.6511397 L12.8091073,11.7066559 C15.1998553,8.72348153 14.8437142,4.39047218 11.9980061,1.83834968 C9.15229797,-0.713772827 4.80958103,-0.594850315 2.10759115,2.10919233 C-0.594398738,4.81323498 -0.71323097,9.15925117 1.8369541,12.0071212 C4.38713917,14.8549913 8.71685914,15.211403 11.6977688,12.8188386 L14.6400174,15.7633225 C14.7901413,15.9147975 14.9944963,16 15.2076794,16 C15.4208626,16 15.6252176,15.9147975 15.7753415,15.7633225 C16.0748862,15.4531942 16.0748862,14.961268 15.7753415,14.6511397 Z M7.21243888,12.8188386 C4.12148427,12.8188386 1.61577048,10.3112212 1.61577048,7.21791832 C1.61577048,4.12461545 4.12148427,1.61699802 7.21243888,1.61699802 C10.3033935,1.61699802 12.8091073,4.12461545 12.8091073,7.21791832 C12.8091073,8.70337475 12.21946,10.1279907 11.1698811,11.1783671 C10.1203021,12.2287434 8.69676762,12.8188386 7.21243888,12.8188386 Z" id="Shape"></path>
            </g>
        </g>
    </g>
</svg>