<?xml version="1.0" encoding="UTF-8"?>
<svg width="20px" height="20px" viewBox="0 0 20 20" version="1.1" xmlns="http://www.w3.org/2000/svg" xmlns:xlink="http://www.w3.org/1999/xlink">
    <!-- Generator: Sketch 62 (91390) - https://sketch.com -->
    <title>icons/settings</title>
    <desc>Created with Sketch.</desc>
    <g id="icons/settings" stroke="none" stroke-width="1" fill="none" fill-rule="evenodd">
        <g id="Settings">
            <rect id="Rectangle" x="0" y="0" width="20" height="20"></rect>
            <g id="cog" transform="translate(1.000000, 1.000000)" fill="#181818">
                <path d="M17.3880002,6.79500375 L15.6870008,6.22800394 L16.4880005,4.62600448 C16.6544081,4.28235592 16.5858667,3.87110775 16.3170005,3.60000482 L14.4000012,1.68300547 C14.1273193,1.41004854 13.7109902,1.34126374 13.3650015,1.51200552 L11.7630021,2.31300525 L11.1960023,0.612005826 C11.0732538,0.248552065 10.7336139,0.00285513742 10.3500026,3.00673275e-06 L7.65000346,3.00673275e-06 C7.26307927,-0.000992751442 6.91881861,0.245425404 6.79500375,0.612005826 L6.22800394,2.31300525 L4.62600448,1.51200552 C4.28235592,1.34559793 3.87110775,1.4141393 3.60000482,1.68300547 L1.68300547,3.60000482 C1.41004854,3.87268673 1.34126374,4.28901582 1.51200552,4.63500447 L2.31300525,6.23700394 L0.612005826,6.80400374 C0.248552065,6.9267522 0.00285513742,7.26639207 3.00673275e-06,7.65000346 L3.00673275e-06,10.3500026 C-0.000992751442,10.7369267 0.245425404,11.0811874 0.612005826,11.2050023 L2.31300525,11.7720021 L1.51200552,13.3740015 C1.34559793,13.7176501 1.4141393,14.1288983 1.68300547,14.4000012 L3.60000482,16.3170005 C3.87268673,16.5899575 4.28901582,16.6587423 4.63500447,16.4880005 L6.23700394,15.6870008 L6.80400374,17.3880002 C6.92781861,17.7545806 7.27207927,18.0009988 7.65900346,18.000003 L10.3590025,18.000003 C10.7459267,18.0009988 11.0901874,17.7545806 11.2140023,17.3880002 L11.7810021,15.6870008 L13.3830015,16.4880005 C13.7242875,16.6501305 14.1305046,16.5818285 14.4000012,16.3170005 L16.3170005,14.4000012 C16.5899575,14.1273193 16.6587423,13.7109902 16.4880005,13.3650015 L15.6870008,11.7630021 L17.3880002,11.1960023 C17.7514539,11.0732538 17.9971509,10.7336139 18.000003,10.3500026 L18.000003,7.65000346 C18.0009988,7.26307927 17.7545806,6.91881861 17.3880002,6.79500375 Z M16.2000006,9.70200277 L15.1200009,10.0620026 C14.6173541,10.2250466 14.2117416,10.6007258 14.0107167,11.0894242 C13.8096918,11.5781227 13.8335633,12.1304691 14.0760013,12.6000018 L14.5890011,13.6260015 L13.5990015,14.6160011 L12.6000018,14.0760013 C12.1330111,13.8433423 11.5880459,13.8247555 11.1062885,14.025056 C10.6245311,14.2253566 10.2533853,14.6248355 10.0890026,15.1200009 L9.72900276,16.2000006 L8.29800324,16.2000006 L7.93800336,15.1200009 C7.77495944,14.6173541 7.39928019,14.2117416 6.91058177,14.0107167 C6.42188335,13.8096918 5.86953693,13.8335633 5.40000422,14.0760013 L4.37400456,14.5890011 L3.38400489,13.5990015 L3.92400471,12.6000018 C4.1664427,12.1304691 4.19031417,11.5781227 3.98928929,11.0894242 C3.7882644,10.6007258 3.38265189,10.2250466 2.88000506,10.0620026 L1.80000543,9.70200277 L1.80000543,8.29800324 L2.88000506,7.93800336 C3.38265189,7.77495944 3.7882644,7.39928019 3.98928929,6.91058177 C4.19031417,6.42188335 4.1664427,5.86953693 3.92400471,5.40000422 L3.41100489,4.40100455 L4.40100455,3.41100489 L5.40000422,3.92400471 C5.86953693,4.1664427 6.42188335,4.19031417 6.91058177,3.98928929 C7.39928019,3.7882644 7.77495944,3.38265189 7.93800336,2.88000506 L8.29800324,1.80000543 L9.70200277,1.80000543 L10.0620026,2.88000506 C10.2250466,3.38265189 10.6007258,3.7882644 11.0894242,3.98928929 C11.5781227,4.19031417 12.1304691,4.1664427 12.6000018,3.92400471 L13.6260015,3.41100489 L14.6160011,4.40100455 L14.0760013,5.40000422 C13.8433423,5.86699493 13.8247555,6.4119601 14.025056,6.89371752 C14.2253566,7.37547494 14.6248355,7.7466207 15.1200009,7.91100337 L16.2000006,8.27100325 L16.2000006,9.70200277 Z M9.00000301,5.40000422 C7.01177858,5.40000422 5.40000422,7.01177858 5.40000422,9.00000301 C5.40000422,10.9882274 7.01177858,12.6000018 9.00000301,12.6000018 C10.9882274,12.6000018 12.6000018,10.9882274 12.6000018,9.00000301 C12.6000018,8.04522396 12.2207173,7.12955019 11.5455866,6.45441945 C10.8704558,5.77928871 9.95478205,5.40000422 9.00000301,5.40000422 Z M9.00000301,10.8000024 C8.00589079,10.8000024 7.20000361,9.99411522 7.20000361,9.00000301 C7.20000361,8.00589079 8.00589079,7.20000361 9.00000301,7.20000361 C9.99411522,7.20000361 10.8000024,8.00589079 10.8000024,9.00000301 C10.8000024,9.99411522 9.99411522,10.8000024 9.00000301,10.8000024 Z" id="Shape"></path>
            </g>
        </g>
    </g>
</svg>