<?xml version="1.0" encoding="UTF-8"?>
<svg width="20px" height="20px" viewBox="0 0 20 20" version="1.1" xmlns="http://www.w3.org/2000/svg" xmlns:xlink="http://www.w3.org/1999/xlink">
    <!-- Generator: Sketch 62 (91390) - https://sketch.com -->
    <title>icons/shield</title>
    <desc>Created with Sketch.</desc>
    <g id="icons/shield" stroke="none" stroke-width="1" fill="none" fill-rule="evenodd">
        <g id="shield">
            <rect id="Rectangle" x="0" y="0" width="20" height="20"></rect>
            <g id="shield-check" transform="translate(4.000000, 2.000000)" fill="#181818">
                <path d="M11.7224918,1.3190972 C11.5460118,1.16677125 11.3143712,1.1079234 11.0924927,1.1590471 C9.47267913,1.52126372 7.78458111,1.15349369 6.42749938,0.142728929 C6.1704038,-0.0475763096 5.8295962,-0.0475763096 5.57250062,0.142728929 C4.21541889,1.15349369 2.52732087,1.52126372 0.907507335,1.1590471 C0.685628777,1.1079234 0.453988217,1.16677125 0.277508243,1.3190972 C0.101264898,1.471649 -0.000763001514,1.70114607 4.29702104e-06,1.94329261 L4.29702104e-06,7.90515902 C-0.00134422196,10.2331083 1.05192986,12.4181984 2.82750457,13.7709954 L5.56500063,15.8516467 C5.82537348,16.0494511 6.17462652,16.0494511 6.43499937,15.8516467 L9.17249543,13.7709954 C10.9480701,12.4181984 12.0013442,10.2331083 12.0000043,7.90515902 L12.0000043,1.94329261 C12.000763,1.70114607 11.8987351,1.471649 11.7224918,1.3190972 Z M10.4999948,7.90515902 C10.5011608,9.71514942 9.68262897,11.4142071 8.30249668,12.466587 L6.00000524,14.2191357 L3.69750332,12.466587 C2.31737103,11.4142071 1.49883925,9.71514942 1.50000524,7.90515902 L1.50000524,2.86358071 C3.07232551,3.0071721 4.64703238,2.61792211 6.00000524,1.75123248 C7.35296762,2.61792211 8.92767449,3.0071721 10.4999948,2.86358071 L10.4999948,7.90515902 Z M7.15499834,6.07258532 L5.13750124,8.23326174 L4.4700022,7.51303626 C4.175911,7.1992403 3.69909495,7.1992403 3.40500375,7.51303627 C3.11091254,7.82683224 3.11091254,8.33559603 3.40500374,8.64939201 L4.60500201,9.92979285 C4.74582676,10.0812904 4.93752338,10.1665056 5.13750124,10.1665056 C5.33747911,10.1665056 5.52917573,10.0812904 5.67000048,9.92979285 L8.24999676,7.20093856 C8.54408796,6.88714258 8.54408795,6.37837879 8.24999675,6.06458282 C7.95590555,5.75078685 7.4790895,5.75078685 7.18499829,6.06458281 L7.15499834,6.07258532 Z" id="Shape"></path>
            </g>
        </g>
    </g>
</svg>