<?xml version="1.0" encoding="UTF-8"?>
<svg width="20px" height="20px" viewBox="0 0 20 20" version="1.1" xmlns="http://www.w3.org/2000/svg" xmlns:xlink="http://www.w3.org/1999/xlink">
    <!-- Generator: Sketch 62 (91390) - https://sketch.com -->
    <title>icons/silence</title>
    <desc>Created with Sketch.</desc>
    <g id="icons/silence" stroke="none" stroke-width="1" fill="none" fill-rule="evenodd">
        <g id="silence">
            <rect id="Rectangle" x="0" y="0" width="20" height="20"></rect>
            <g id="ear" transform="translate(4.000000, 1.000000)" fill="#000000" fill-rule="nonzero">
                <path d="M6.00002678,5.40003786 C6.47328031,5.40037046 6.85684903,5.80312224 6.85716579,6.30004417 C6.85716579,6.79710393 7.24092,7.20005048 7.71430481,7.20005048 C8.18768962,7.20005048 8.57144383,6.79710393 8.57144383,6.30004417 C8.57081043,5.06250578 7.76887664,3.98390295 6.62566118,3.68296194 C5.48244572,3.38202093 4.29075666,3.93582077 3.73419066,5.02668152 C3.17762467,6.11754227 3.39873318,7.46606529 4.27068024,8.29868818 C4.27925163,8.30687824 4.40879105,8.45161725 4.43641664,8.49205454 C4.6350935,8.79539371 4.6350935,9.19594843 4.43641664,9.4992876 C4.26326712,9.76430836 4.23792299,10.1061916 4.36993116,10.3961533 C4.50193932,10.686115 4.77124459,10.880103 5.07640228,10.9050439 C5.38155996,10.9299848 5.67620936,10.7820895 5.84935888,10.5170687 C6.45133319,9.59820947 6.44966828,8.3842793 5.84517604,7.46724435 C5.71321619,7.29267775 5.57267746,7.12545457 5.42413221,6.96625584 C5.37313799,6.91737665 5.32764186,6.86252702 5.28853282,6.80277869 C5.11196061,6.52667157 5.09467043,6.17086265 5.24356101,5.87731849 C5.39245159,5.58377433 5.68328772,5.40027568 6.00002678,5.40003786 L6.00002678,5.40003786 Z M6.00002678,0 C4.13477825,0 2.37567323,0.911112923 1.24013929,2.46488767 C0.104605343,4.01866243 -0.278211028,6.03855296 0.204292745,7.9304236 C0.328216638,8.40868255 0.797114441,8.69168937 1.25307054,8.56342138 C1.70902665,8.4351534 1.98036819,7.94390502 1.85997675,7.46465233 C1.42902043,5.7753579 1.96917179,3.97688464 3.2450975,2.85279206 C4.52102322,1.72869949 6.30162659,1.48258413 7.81113369,2.22167363 C9.32064079,2.96076313 10.2856485,4.551193 10.2857219,6.30004417 C10.2820942,7.11278121 10.0735773,7.91001802 9.68137028,8.61070237 L6.62698111,15.3001073 C6.32025121,15.8562401 5.75493779,16.199066 5.14288776,16.2001136 C4.20132771,16.18703 3.44107013,15.3887504 3.42860973,14.400101 C3.42860308,14.0843453 3.50800823,13.7741871 3.65879441,13.5009947 C3.8959602,13.0704365 3.75580932,12.519524 3.34575867,12.270497 C2.93570801,12.0214701 2.41103542,12.1686302 2.17386963,12.5991883 C1.55664568,13.7197298 1.56007882,15.1019975 2.18286053,16.2191435 C2.80564224,17.3362894 3.95181865,18.0161916 5.18452746,17.9997069 C6.41723627,17.9832222 7.54655031,17.2728906 8.14203432,16.1394532 L11.1964321,9.45006625 C12.2679973,7.50074813 12.2678465,5.09926424 11.1960365,3.15009451 C10.1242264,1.20092478 8.14356141,0 6.00002678,0 Z" id="Shape"></path>
            </g>
        </g>
    </g>
</svg>