<?xml version="1.0" encoding="UTF-8"?>
<svg width="20px" height="20px" viewBox="0 0 20 20" version="1.1" xmlns="http://www.w3.org/2000/svg" xmlns:xlink="http://www.w3.org/1999/xlink">
    <!-- Generator: Sketch 62 (91390) - https://sketch.com -->
    <title>icons/sliders</title>
    <desc>Created with Sketch.</desc>
    <g id="icons/sliders" stroke="none" stroke-width="1" fill="none" fill-rule="evenodd">
        <g id="sliders">
            <rect id="Rectangle" x="0" y="0" width="20" height="20"></rect>
            <g id="sliders-v" transform="translate(2.000000, 2.000000)" fill="#181818">
                <path d="M4,3.2 L3.2,3.2 L3.2,0.8 C3.2,0.3581722 2.8418278,0 2.4,0 C1.9581722,0 1.6,0.3581722 1.6,0.8 L1.6,3.2 L0.8,3.2 C0.3581722,3.2 0,3.5581722 0,4 C0,4.4418278 0.3581722,4.8 0.8,4.8 L4,4.8 C4.4418278,4.8 4.8,4.4418278 4.8,4 C4.8,3.5581722 4.4418278,3.2 4,3.2 Z M2.4,6.4 C1.9581722,6.4 1.6,6.7581722 1.6,7.2 L1.6,15.2 C1.6,15.6418278 1.9581722,16 2.4,16 C2.8418278,16 3.2,15.6418278 3.2,15.2 L3.2,7.2 C3.2,6.7581722 2.8418278,6.4 2.4,6.4 Z M8,12.8 C7.5581722,12.8 7.2,13.1581722 7.2,13.6 L7.2,15.2 C7.2,15.6418278 7.5581722,16 8,16 C8.4418278,16 8.8,15.6418278 8.8,15.2 L8.8,13.6 C8.8,13.1581722 8.4418278,12.8 8,12.8 Z M15.2,6.4 L14.4,6.4 L14.4,0.8 C14.4,0.3581722 14.0418278,0 13.6,0 C13.1581722,0 12.8,0.3581722 12.8,0.8 L12.8,6.4 L12,6.4 C11.5581722,6.4 11.2,6.7581722 11.2,7.2 C11.2,7.6418278 11.5581722,8 12,8 L15.2,8 C15.6418278,8 16,7.6418278 16,7.2 C16,6.7581722 15.6418278,6.4 15.2,6.4 Z M13.6,9.6 C13.1581722,9.6 12.8,9.9581722 12.8,10.4 L12.8,15.2 C12.8,15.6418278 13.1581722,16 13.6,16 C14.0418278,16 14.4,15.6418278 14.4,15.2 L14.4,10.4 C14.4,9.9581722 14.0418278,9.6 13.6,9.6 Z M9.6,9.6 L8.8,9.6 L8.8,0.8 C8.8,0.3581722 8.4418278,0 8,0 C7.5581722,0 7.2,0.3581722 7.2,0.8 L7.2,9.6 L6.4,9.6 C5.9581722,9.6 5.6,9.9581722 5.6,10.4 C5.6,10.8418278 5.9581722,11.2 6.4,11.2 L9.6,11.2 C10.0418278,11.2 10.4,10.8418278 10.4,10.4 C10.4,9.9581722 10.0418278,9.6 9.6,9.6 Z" id="Shape"></path>
            </g>
        </g>
    </g>
</svg>