<?xml version="1.0" encoding="UTF-8"?>
<svg width="20px" height="20px" viewBox="0 0 20 20" version="1.1" xmlns="http://www.w3.org/2000/svg" xmlns:xlink="http://www.w3.org/1999/xlink">
    <!-- Generator: Sketch 62 (91390) - https://sketch.com -->
    <title>icons/star</title>
    <desc>Created with Sketch.</desc>
    <g id="icons/star" stroke="none" stroke-width="1" fill="none" fill-rule="evenodd">
        <g id="star">
            <rect id="Rectangle" x="0" y="0" width="20" height="20"></rect>
            <g transform="translate(1.000000, 1.000000)" fill="#181818" id="Shape">
                <path d="M17.9697762,6.43061302 C17.8538127,6.09842359 17.550861,5.86498834 17.1968306,5.83503033 L12.082807,5.09721895 L9.79093347,0.501454047 C9.64076054,0.194782007 9.32655729,0 8.98203694,0 C8.6375166,0 8.32331335,0.194782007 8.17314041,0.501454047 L5.88126692,5.08832965 L0.767243306,5.83503033 C0.427886879,5.88273636 0.145511177,6.11719596 0.03923643,6.43950231 C-0.0579350501,6.75410666 0.0285016803,7.09606651 0.26392991,7.32843169 L3.9758662,10.8841492 L3.07709228,15.9332681 C3.01157799,16.2735477 3.15188594,16.6204755 3.43660185,16.8221975 C3.71381059,17.0182021 4.07925245,17.042298 4.38031447,16.8844225 L8.98203694,14.5109811 L13.5657839,16.8933118 C13.6919248,16.9636942 13.8343914,17.0004523 13.9792199,16.999989 C14.169604,17.000654 14.3552857,16.9415131 14.5094966,16.8310868 C14.7942125,16.6293648 14.9345204,16.282437 14.8690061,15.9421574 L13.9702322,10.8930385 L17.6821685,7.33732099 C17.9470363,7.11538187 18.0589953,6.76242146 17.9697762,6.43061302 Z M12.4423165,9.98633054 C12.2283015,10.1910662 12.1306932,10.4873415 12.1816721,10.7774777 L12.8287893,14.5020918 L9.44939938,12.724233 C9.18533472,12.5851647 8.86861656,12.5851647 8.6045519,12.724233 L5.22516195,14.5020918 L5.87227918,10.7774777 C5.92325807,10.4873415 5.82564978,10.1910662 5.61163474,9.98633054 L2.91531298,7.3195424 L6.69915118,6.77729548 C6.99480013,6.73662217 7.25074285,6.55342925 7.38221936,6.28838432 L8.98203694,2.90156338 L10.6717319,6.29727361 C10.8032084,6.56231855 11.0591511,6.74551146 11.3548001,6.78618477 L15.1386383,7.32843169 L12.4423165,9.98633054 Z"></path>
            </g>
        </g>
    </g>
</svg>