<?xml version="1.0" encoding="UTF-8"?>
<svg width="20px" height="20px" viewBox="0 0 20 20" version="1.1" xmlns="http://www.w3.org/2000/svg" xmlns:xlink="http://www.w3.org/1999/xlink">
    <!-- Generator: Sketch 62 (91390) - https://sketch.com -->
    <title>icons/statistics</title>
    <desc>Created with Sketch.</desc>
    <g id="icons/statistics" stroke="none" stroke-width="1" fill="none" fill-rule="evenodd">
        <g id="Stats">
            <rect id="Rectangle" x="0" y="0" width="20" height="20"></rect>
            <g id="chart-up" transform="translate(10.000000, 10.000000) scale(1, -1) translate(-10.000000, -10.000000) translate(2.000000, 5.000000)" fill="#181818">
                <path d="M15.2001636,4.16865498 C14.7584262,4.16865498 14.4003273,4.54162385 14.4003273,5.00170426 L14.4003273,7.15930192 L9.36935651,1.9110914 C9.21917395,1.75338463 9.01473908,1.66467682 8.80147269,1.66467682 C8.58820629,1.66467682 8.38377142,1.75338463 8.23358886,1.9110914 L5.60212721,4.66015406 L1.37099282,0.244992823 C1.05735925,-0.0816642743 0.548858755,-0.0816642743 0.235225181,0.244992823 C-0.0784083936,0.57164992 -0.0784083936,1.10126572 0.235225181,1.42792281 L5.03424339,6.42621855 C5.18442595,6.58392532 5.38886081,6.67263313 5.60212721,6.67263313 C5.81539361,6.67263313 6.01982848,6.58392532 6.17001103,6.42621855 L8.80147269,3.67715589 L13.272558,8.33390142 L11.2009818,8.33390142 C10.7592444,8.33390142 10.4011454,8.70687029 10.4011454,9.16695071 C10.4011454,9.62703113 10.7592444,10 11.2009818,10 L15.2001636,10 C15.3046841,9.99868379 15.4079433,9.97604231 15.5041015,9.93335606 C15.6995409,9.84882245 15.8548498,9.68706447 15.9360131,9.48350944 C15.9769975,9.38335833 15.9987363,9.27581131 16,9.16695071 L16,5.00170426 C16,4.54162385 15.6419011,4.16865498 15.2001636,4.16865498 Z" id="Path"></path>
            </g>
        </g>
    </g>
</svg>