<?xml version="1.0" encoding="UTF-8"?>
<svg width="20px" height="20px" viewBox="0 0 20 20" version="1.1" xmlns="http://www.w3.org/2000/svg" xmlns:xlink="http://www.w3.org/1999/xlink">
    <!-- Generator: Sketch 62 (91390) - https://sketch.com -->
    <title>icons/twitter</title>
    <desc>Created with Sketch.</desc>
    <g id="icons/twitter" stroke="none" stroke-width="1" fill="none" fill-rule="evenodd">
        <g id="twitter">
            <rect id="Rectangle" x="0" y="0" width="20" height="20"></rect>
            <g transform="translate(2.000000, 3.000000)" fill="#181818" id="Path">
                <path d="M16,1.55759035 C15.3986697,1.81796348 14.7627422,1.99008608 14.112,2.06860378 C14.7985383,1.65925074 15.3130173,1.01526344 15.56,0.256103036 C14.9148417,0.639413526 14.2086097,0.909479118 13.472,1.05456151 C12.4593421,-0.0414961484 10.8325761,-0.31618561 9.51503184,0.386403043 C8.19748756,1.0889917 7.52201377,2.59136477 7.872,4.04079622 C5.23388846,3.90761896 2.77657495,2.66246372 1.112,0.615409351 C0.823309951,1.11857278 0.671615424,1.6883957 0.672,2.2682184 C0.66992084,3.36187612 1.21649003,4.38396928 2.128,4.9909618 C1.60638193,4.9767967 1.09590852,4.83709789 0.64,4.58374798 L0.64,4.62367091 C0.648059905,6.17905234 1.75154484,7.5140325 3.28,7.81750481 C2.99460438,7.90419067 2.6983,7.94989492 2.4,7.95324275 C2.19351218,7.95083503 1.9875378,7.93214616 1.784,7.89735066 C2.2167806,9.22769681 3.44684597,10.1380504 4.848,10.1649727 C3.69376208,11.071436 2.26870679,11.5661523 0.8,11.5702597 C0.532588202,11.5711348 0.265388495,11.5551337 0,11.5223521 C1.49954268,12.4886921 3.24705028,13.0016745 5.032,12.9995003 C7.52021043,13.0252903 9.91438239,12.0517948 11.676163,10.2979138 C13.4379437,8.54403274 14.4194569,6.15697919 14.4,3.67350532 C14.4,3.53776738 14.4,3.39404485 14.4,3.25032232 C15.0277563,2.78307305 15.5691796,2.21027017 16,1.55759035 L16,1.55759035 Z"></path>
            </g>
        </g>
    </g>
</svg>