<?xml version="1.0" encoding="UTF-8"?>
<svg width="20px" height="20px" viewBox="0 0 20 20" version="1.1" xmlns="http://www.w3.org/2000/svg" xmlns:xlink="http://www.w3.org/1999/xlink">
    <!-- Generator: Sketch 62 (91390) - https://sketch.com -->
    <title>icons/user</title>
    <desc>Created with Sketch.</desc>
    <g id="icons/user" stroke="none" stroke-width="1" fill="none" fill-rule="evenodd">
        <g id="user">
            <rect id="Rectangle" x="0" y="0" width="20" height="20"></rect>
            <g transform="translate(2.000000, 2.000000)" fill="#181818" id="Shape">
                <path d="M10.97071,8.5674211 C12.5863537,7.30325417 13.2188526,5.15965243 12.5462684,3.22769623 C11.8736842,1.29574003 10.0438255,0 7.9880793,0 C5.9323331,0 4.10247439,1.29574003 3.42989021,3.22769623 C2.75730603,5.15965243 3.38980485,7.30325417 5.00544858,8.5674211 C2.25362757,9.66386125 0.331816503,12.1774017 0.00491946795,15.1076229 C-0.0439211682,15.5491943 0.276423478,15.9465347 0.720429261,15.9951075 C1.16443504,16.0436804 1.56396601,15.7250921 1.61280664,15.2835208 C1.97830443,12.0475931 4.72992659,9.60124355 8.00415817,9.60124355 C11.2783897,9.60124355 14.0300119,12.0475931 14.3955097,15.2835208 C14.4407839,15.6904324 14.7878086,15.9975911 15.1994533,15.9951075 L15.2878871,15.9951075 C15.7265517,15.944911 16.0424075,15.552256 15.9953574,15.1156183 C15.6668802,12.1767724 13.7342777,9.65817542 10.97071,8.5674211 L10.97071,8.5674211 Z M7.9880793,7.99975077 C6.21205616,7.99975077 4.77230494,6.56789351 4.77230494,4.80160808 C4.77230494,3.03532264 6.21205616,1.60346538 7.9880793,1.60346538 C9.76410243,1.60346538 11.2038536,3.03532264 11.2038536,4.80160808 C11.2038536,5.64980825 10.8650498,6.46326836 10.2619751,7.06303646 C9.65890047,7.66280456 8.84095568,7.99975077 7.9880793,7.99975077 Z"></path>
            </g>
        </g>
    </g>
</svg>