<?xml version="1.0" encoding="UTF-8"?>
<svg width="20px" height="20px" viewBox="0 0 20 20" version="1.1" xmlns="http://www.w3.org/2000/svg" xmlns:xlink="http://www.w3.org/1999/xlink">
    <!-- Generator: Sketch 62 (91390) - https://sketch.com -->
    <title>icons/video</title>
    <desc>Created with Sketch.</desc>
    <g id="icons/video" stroke="none" stroke-width="1" fill="none" fill-rule="evenodd">
        <g id="Video">
            <rect id="Rectangle" x="0" y="0" width="20" height="20"></rect>
            <g id="video" transform="translate(2.000000, 5.000000)" fill="#181818">
                <path d="M15.6239984,0.958334375 C15.3764776,0.80947373 15.0715193,0.80947373 14.8239985,0.958334375 L12,2.40833421 C11.9526307,1.06354713 10.8918631,-0.000903744845 9.59999904,5.75780551e-07 L2.39999976,5.75780551e-07 C1.07451649,5.75780551e-07 0,1.11928915 0,2.50000058 L0,7.50000058 C0,8.880712 1.07451649,10.0000006 2.39999976,10.0000006 L9.59999904,10.0000006 C10.8918631,10.0009049 11.9526307,8.93645402 12,7.59166694 L14.8479985,9.07500011 C14.9570435,9.13323462 15.077474,9.1645967 15.1999985,9.16666676 C15.3497786,9.16716744 15.4966854,9.12385764 15.6239984,9.04166678 C15.8583868,8.88907058 16.0005515,8.62125138 16,8.33333352 L16,1.66666763 C16.0005515,1.37874977 15.8583868,1.11093057 15.6239984,0.958334375 Z M10.399999,7.50000029 C10.399999,7.96023753 10.0418268,8.33333352 9.59999984,8.33333352 L2.39999976,8.33333352 C1.958172,8.33333352 1.59999984,7.96023753 1.59999984,7.50000029 L1.59999984,2.50000086 C1.59999984,2.03976363 1.958172,1.66666763 2.39999976,1.66666763 L9.59999984,1.66666763 C10.0418268,1.66666763 10.399999,2.03976363 10.399999,2.50000086 L10.399999,7.50000029 Z M14.3999986,6.98333368 L11.9999988,5.73333382 L11.9999988,4.26666733 L14.3999986,3.01666747 L14.3999986,6.98333368 Z" id="Shape"></path>
            </g>
        </g>
    </g>
</svg>