<?xml version="1.0" encoding="UTF-8"?>
<svg width="20px" height="20px" viewBox="0 0 20 20" version="1.1" xmlns="http://www.w3.org/2000/svg" xmlns:xlink="http://www.w3.org/1999/xlink">
    <!-- Generator: Sketch 62 (91390) - https://sketch.com -->
    <title>icons/woman</title>
    <desc>Created with Sketch.</desc>
    <g id="icons/woman" stroke="none" stroke-width="1" fill="none" fill-rule="evenodd">
        <g id="Woman">
            <rect id="Rectangle" x="0" y="0" width="20" height="20"></rect>
            <g id="venus" transform="translate(3.500000, 1.500000)" fill="#181818">
                <path d="M12.6666667,5.95460387 C12.6704116,2.7794239 10.1574322,0.161264516 6.95810962,0.00712573947 C3.75878703,-0.147013037 1.0015228,2.21723356 0.694637346,5.37780906 C0.38775189,8.53838456 2.63948375,11.3805536 5.80972929,11.8341532 L5.80972929,13.6014166 L4.95261317,13.6014166 C4.47924101,13.6014166 4.09549705,13.981816 4.09549705,14.4510624 C4.09549705,14.9203089 4.47924101,15.3007083 4.95261317,15.3007083 L5.80972929,15.3007083 L5.80972929,16.1503541 C5.80972929,16.6196006 6.19347325,17 6.66684542,17 C7.14021758,17 7.52396154,16.6196006 7.52396154,16.1503541 L7.52396154,15.3007083 L8.38107766,15.3007083 C8.85444983,15.3007083 9.23819379,14.9203089 9.23819379,14.4510624 C9.23819379,13.981816 8.85444983,13.6014166 8.38107766,13.6014166 L7.52396154,13.6014166 L7.52396154,11.8341532 C10.4732353,11.4121744 12.6631659,8.90846752 12.6666667,5.95460387 L12.6666667,5.95460387 Z M6.66684542,10.2028332 C4.2999846,10.2028332 2.3812648,8.30083612 2.3812648,5.95460387 C2.3812648,3.60837163 4.2999846,1.70637459 6.66684542,1.70637459 C9.03370623,1.70637459 10.952426,3.60837163 10.952426,5.95460387 C10.952426,7.08130433 10.5009108,8.16185807 9.69720853,8.95855561 C8.89350626,9.75525314 7.80345206,10.2028332 6.66684542,10.2028332 L6.66684542,10.2028332 Z" id="Shape"></path>
            </g>
        </g>
    </g>
</svg>